<svg width="28" height="28" viewBox="0 0 28 28" fill="none" xmlns="http://www.w3.org/2000/svg">
<path d="M10.0788 3.58927C19.6832 -0.254408 29.16 9.94248 23.9995 19.2315C21.6554 23.4508 15.8316 26.8484 9.05041 23.6349L4.33691 24.9816C3.60556 25.1905 2.92971 24.5174 3.13493 23.7855C3.41626 22.7821 4.08284 20.4166 4.47258 19.1347C1.54963 13.919 3.52058 6.21386 10.0788 3.58927ZM9.77886 11.811C9.77886 12.1945 10.0897 12.5054 10.4733 12.5054H17.9757C18.3592 12.5054 18.6702 12.1945 18.6702 11.811C18.6702 11.4274 18.3592 11.1165 17.9757 11.1165H10.4733C10.0897 11.1165 9.77886 11.4274 9.77886 11.811ZM10.4757 15.2693C10.0922 15.2693 9.7813 15.5802 9.7813 15.9638C9.7813 16.3473 10.0922 16.6582 10.4757 16.6582H15.7535C16.137 16.6582 16.448 16.3473 16.448 15.9638C16.448 15.5802 16.137 15.2693 15.7535 15.2693H10.4757Z" fill="white"/>
</svg>
