<svg width="24" height="25" viewBox="0 0 24 25" fill="none" xmlns="http://www.w3.org/2000/svg">
<path d="M3 6.34766H5H21" stroke="#B81414" stroke-width="2" stroke-linecap="round" stroke-linejoin="round"/>
<path d="M19 6.34766V20.3477C19 20.8781 18.7893 21.3868 18.4142 21.7619C18.0391 22.1369 17.5304 22.3477 17 22.3477H7C6.46957 22.3477 5.96086 22.1369 5.58579 21.7619C5.21071 21.3868 5 20.8781 5 20.3477V6.34766M8 6.34766V4.34766C8 3.81722 8.21071 3.30852 8.58579 2.93344C8.96086 2.55837 9.46957 2.34766 10 2.34766H14C14.5304 2.34766 15.0391 2.55837 15.4142 2.93344C15.7893 3.30852 16 3.81722 16 4.34766V6.34766" stroke="#B81414" stroke-width="2" stroke-linecap="round" stroke-linejoin="round"/>
<path d="M10 11.3477V17.3477" stroke="#B81414" stroke-width="2" stroke-linecap="round" stroke-linejoin="round"/>
<path d="M14 11.3477V17.3477" stroke="#B81414" stroke-width="2" stroke-linecap="round" stroke-linejoin="round"/>
</svg>
