<svg width="121" height="43" viewBox="0 0 121 43" fill="none" xmlns="http://www.w3.org/2000/svg">
<g clip-path="url(#clip0_1081_16726)">
<path d="M6.98608 2.33789C6.98608 13.4376 16.9097 22.4358 29.151 22.4358" stroke="#F670C7" stroke-width="1.30382" stroke-linecap="round"/>
<path fill-rule="evenodd" clip-rule="evenodd" d="M6.98604 2.85775L11.1347 6.85469C11.3893 7.09997 11.8021 7.09997 12.0567 6.85469C12.3112 6.60943 12.3112 6.21176 12.0567 5.96649L7.45985 1.53786C7.45568 1.53362 7.4515 1.52942 7.4472 1.52526C7.19257 1.27999 6.77978 1.27999 6.52514 1.52526L1.91549 5.96631C1.66098 6.21157 1.66098 6.60925 1.91549 6.85452C2.17012 7.0998 2.58291 7.0998 2.83742 6.85452L6.98604 2.85775Z" fill="#F670C7"/>
</g>
<path d="M43.3249 24.9584C42.2263 24.9584 41.2983 24.713 40.5409 24.2224C39.7836 23.7317 39.2449 23.0544 38.9249 22.1904L40.8129 21.0864C41.2503 22.2277 42.1089 22.7984 43.3889 22.7984C43.9863 22.7984 44.4343 22.6917 44.7329 22.4784C45.0316 22.265 45.1809 21.977 45.1809 21.6144C45.1809 21.2197 45.0049 20.9157 44.6529 20.7024C44.3009 20.4784 43.6716 20.2384 42.7649 19.9824C41.7836 19.6837 41.0103 19.337 40.4449 18.9424C39.7409 18.4197 39.3889 17.6517 39.3889 16.6384C39.3889 15.6144 39.7463 14.809 40.4609 14.2224C41.1756 13.6144 42.0449 13.3104 43.0689 13.3104C43.9649 13.3104 44.7596 13.529 45.4529 13.9664C46.1463 14.4037 46.6849 15.0224 47.0689 15.8224L45.2129 16.8944C44.7649 15.9344 44.0503 15.4544 43.0689 15.4544C42.6209 15.4544 42.2636 15.561 41.9969 15.7744C41.7303 15.977 41.5969 16.2437 41.5969 16.5744C41.5969 16.9264 41.7409 17.2144 42.0289 17.4384C42.3489 17.6624 42.9143 17.897 43.7249 18.1424L44.4929 18.3984C44.6316 18.441 44.8716 18.5317 45.2129 18.6704C45.5329 18.7877 45.7676 18.8997 45.9169 19.0064C46.4396 19.3264 46.7916 19.657 46.9729 19.9984C47.2503 20.4464 47.3889 20.9744 47.3889 21.5824C47.3889 22.617 47.0103 23.4384 46.2529 24.0464C45.4956 24.6544 44.5196 24.9584 43.3249 24.9584ZM55.0318 17.6784V16.7344H57.0958V24.7344H55.0318V23.7904C54.4131 24.569 53.5438 24.9584 52.4238 24.9584C51.3571 24.9584 50.4398 24.553 49.6718 23.7424C48.9145 22.921 48.5358 21.9184 48.5358 20.7344C48.5358 19.561 48.9145 18.5637 49.6718 17.7424C50.4398 16.921 51.3571 16.5104 52.4238 16.5104C53.5438 16.5104 54.4131 16.8997 55.0318 17.6784ZM51.2238 22.3664C51.6398 22.7824 52.1678 22.9904 52.8078 22.9904C53.4478 22.9904 53.9758 22.7824 54.3918 22.3664C54.8185 21.9397 55.0318 21.3957 55.0318 20.7344C55.0318 20.073 54.8185 19.5344 54.3918 19.1184C53.9758 18.6917 53.4478 18.4784 52.8078 18.4784C52.1678 18.4784 51.6398 18.6917 51.2238 19.1184C50.8078 19.5344 50.5998 20.073 50.5998 20.7344C50.5998 21.3957 50.8078 21.9397 51.2238 22.3664ZM62.2794 22.3344L64.2314 16.7344H66.5034L63.4634 24.7344H61.1114L58.0714 16.7344H60.3434L62.2794 22.3344ZM74.9622 21.5824H68.9302C69.1969 22.585 69.9489 23.0864 71.1862 23.0864C71.9755 23.0864 72.5729 22.8197 72.9782 22.2864L74.6422 23.2464C73.8529 24.3877 72.6902 24.9584 71.1542 24.9584C69.8315 24.9584 68.7702 24.5584 67.9702 23.7584C67.1702 22.9584 66.7702 21.9504 66.7702 20.7344C66.7702 19.5397 67.1649 18.537 67.9542 17.7264C68.7329 16.9157 69.7462 16.5104 70.9942 16.5104C72.1782 16.5104 73.1435 16.9157 73.8902 17.7264C74.6582 18.537 75.0422 19.5397 75.0422 20.7344C75.0422 20.9584 75.0155 21.241 74.9622 21.5824ZM68.8982 19.9824H72.9782C72.8609 19.4597 72.6209 19.0597 72.2582 18.7824C71.9062 18.505 71.4849 18.3664 70.9942 18.3664C70.4395 18.3664 69.9809 18.5104 69.6182 18.7984C69.2555 19.0757 69.0155 19.4704 68.8982 19.9824ZM87.4591 24.7344H79.9711V23.0864L83.7951 19.1504C84.6484 18.2437 85.0751 17.497 85.0751 16.9104C85.0751 16.473 84.9364 16.121 84.6591 15.8544C84.3924 15.5877 84.0457 15.4544 83.6191 15.4544C82.7657 15.4544 82.1417 15.8917 81.7471 16.7664L79.8911 15.6784C80.2324 14.921 80.7284 14.3397 81.3791 13.9344C82.0404 13.5184 82.7764 13.3104 83.5871 13.3104C84.6004 13.3104 85.4697 13.6304 86.1951 14.2704C86.9204 14.8997 87.2831 15.753 87.2831 16.8304C87.2831 17.993 86.6697 19.1877 85.4431 20.4144L83.2511 22.6064H87.4591V24.7344ZM92.9228 24.9584C91.5255 24.9584 90.4268 24.4304 89.6268 23.3744C88.8375 22.297 88.4428 20.8837 88.4428 19.1344C88.4428 17.385 88.8375 15.977 89.6268 14.9104C90.4268 13.8437 91.5255 13.3104 92.9228 13.3104C94.3415 13.3104 95.4401 13.8437 96.2188 14.9104C97.0081 15.977 97.4028 17.385 97.4028 19.1344C97.4028 20.8837 97.0081 22.297 96.2188 23.3744C95.4401 24.4304 94.3415 24.9584 92.9228 24.9584ZM95.2108 19.1344C95.2108 17.9397 95.0135 17.0277 94.6188 16.3984C94.2348 15.769 93.6695 15.4544 92.9228 15.4544C92.1761 15.4544 91.6108 15.769 91.2268 16.3984C90.8428 17.0277 90.6508 17.9397 90.6508 19.1344C90.6508 20.329 90.8428 21.241 91.2268 21.8704C91.6108 22.489 92.1761 22.7984 92.9228 22.7984C93.6695 22.7984 94.2348 22.4837 94.6188 21.8544C95.0135 21.225 95.2108 20.3184 95.2108 19.1344ZM102.992 17.8384C102.47 18.3397 101.83 18.5904 101.072 18.5904C100.304 18.5904 99.6591 18.3344 99.1364 17.8224C98.6244 17.3104 98.3684 16.6864 98.3684 15.9504C98.3684 15.2144 98.6244 14.5904 99.1364 14.0784C99.6698 13.5664 100.315 13.3104 101.072 13.3104C101.84 13.3104 102.48 13.5664 102.992 14.0784C103.504 14.569 103.76 15.193 103.76 15.9504C103.76 16.697 103.504 17.3264 102.992 17.8384ZM100.464 23.5984L99.5044 23.0384L106.8 14.9264L107.776 15.4704L100.464 23.5984ZM100.336 16.6864C100.528 16.8784 100.768 16.9744 101.056 16.9744C101.344 16.9744 101.584 16.8784 101.776 16.6864C101.968 16.4837 102.064 16.2384 102.064 15.9504C102.064 15.6624 101.968 15.4224 101.776 15.2304C101.584 15.0384 101.344 14.9424 101.056 14.9424C100.768 14.9424 100.528 15.0384 100.336 15.2304C100.155 15.4224 100.064 15.6624 100.064 15.9504C100.064 16.2384 100.155 16.4837 100.336 16.6864ZM109.168 22.2864C109.168 23.0224 108.912 23.6464 108.4 24.1584C107.888 24.6704 107.248 24.9264 106.48 24.9264C105.712 24.9264 105.072 24.6704 104.56 24.1584C104.048 23.6464 103.792 23.0224 103.792 22.2864C103.792 21.5504 104.048 20.9264 104.56 20.4144C105.072 19.9024 105.712 19.6464 106.48 19.6464C107.248 19.6464 107.888 19.9024 108.4 20.4144C108.912 20.9264 109.168 21.5504 109.168 22.2864ZM107.184 23.0224C107.376 22.8197 107.472 22.5744 107.472 22.2864C107.472 21.9984 107.376 21.7584 107.184 21.5664C107.003 21.3637 106.768 21.2624 106.48 21.2624C106.192 21.2624 105.952 21.3637 105.76 21.5664C105.579 21.7584 105.488 21.9984 105.488 22.2864C105.488 22.5744 105.579 22.8197 105.76 23.0224C105.952 23.2144 106.192 23.3104 106.48 23.3104C106.768 23.3104 107.003 23.2144 107.184 23.0224Z" fill="#F670C7"/>
<defs>
<clipPath id="clip0_1081_16726">
<rect width="29.9878" height="23.4688" fill="white" transform="translate(0.467041)"/>
</clipPath>
</defs>
</svg>
