

<svg width="21" height="21" viewBox="0 0 21 21" fill="none" xmlns="http://www.w3.org/2000/svg">
<g clip-path="url(#clip0_688_13559)">
<path d="M11.5 13.7852V5.66016C11.5 5.21142 11.1362 4.84766 10.6875 4.84766C10.2388 4.84766 9.875 5.21142 9.875 5.66016V13.7852C9.875 14.2339 10.2388 14.5977 10.6875 14.5977C11.1362 14.5977 11.5 14.2339 11.5 13.7852Z" fill="#6950BA"/>
<path d="M10.7929 5.68992L11.9816 7.11634C12.2999 7.49839 12.8777 7.52461 13.2293 7.17294C13.546 6.8563 13.5609 6.34772 13.2634 6.01303L11.1505 3.63599C10.8273 3.27238 10.2592 3.27238 9.93594 3.63599L7.823 6.01303C7.5255 6.34772 7.54045 6.8563 7.85709 7.17294C8.20875 7.52461 8.78646 7.4984 9.10484 7.11634L10.2935 5.68992C10.4234 5.53399 10.663 5.53399 10.7929 5.68992Z" fill="#6950BA"/>
<path d="M15.9844 7.30078H15.1719C14.7231 7.30078 14.3594 7.66455 14.3594 8.11328C14.3594 8.56201 14.7231 8.92578 15.1719 8.92578C15.6206 8.92578 15.9844 9.28954 15.9844 9.73828V15.4258C15.9844 15.8745 15.6206 16.2383 15.1719 16.2383H5.42188C4.97315 16.2383 4.60938 15.8745 4.60938 15.4258V9.73828C4.60938 9.28954 4.97314 8.92578 5.42188 8.92578C5.87061 8.92578 6.23438 8.56201 6.23438 8.11328C6.23438 7.66455 5.87061 7.30078 5.42188 7.30078H4.60938C3.71191 7.30078 2.98438 8.02832 2.98438 8.92578V16.2383C2.98438 17.1358 3.71191 17.8633 4.60938 17.8633H15.9844C16.8819 17.8633 17.6094 17.1358 17.6094 16.2383V8.92578C17.6094 8.02832 16.8819 7.30078 15.9844 7.30078Z" fill="#6950BA"/>
</g>
<defs>
<clipPath id="clip0_688_13559">
<rect width="19.5" height="19.5" fill="white" transform="translate(0.75 0.597656)"/>
</clipPath>
</defs>
</svg>
