<svg width="14" height="22" viewBox="0 0 14 22" fill="none" xmlns="http://www.w3.org/2000/svg">
<path fill-rule="evenodd" clip-rule="evenodd" d="M2.98649 0.447113C2.93246 0.485514 2.84182 0.580945 2.78506 0.659245L2.68189 0.801577L2.65951 10.534L2.63713 20.2665L1.82261 20.2885L1.00805 20.3105L0.848166 20.4631C0.497912 20.7974 0.562591 21.3453 0.975019 21.5379C1.1106 21.6011 1.38628 21.6096 3.30921 21.6096C5.44717 21.6096 5.49292 21.6078 5.65831 21.5164C6.12105 21.2605 6.12136 20.6972 5.65894 20.3876C5.51996 20.2945 5.46521 20.2885 4.75642 20.2885H4.00189L4.0133 16.1664L4.02472 12.0443L8.5005 9.47544C11.2172 7.91613 13.0159 6.8578 13.0771 6.78259C13.2917 6.51889 13.2628 6.14676 13.0075 5.88623C12.898 5.77446 11.3024 4.82702 8.25463 3.06404L3.66663 0.410121L3.37568 0.393739C3.16061 0.381628 3.05913 0.395544 2.98649 0.447113Z" fill="white"/>
</svg>
