<svg width="20" height="22" viewBox="0 0 20 22" fill="none" xmlns="http://www.w3.org/2000/svg">
<mask id="path-1-outside-1_982_973" maskUnits="userSpaceOnUse" x="-0.378906" y="-0.611328" width="21" height="23" fill="black">
<rect fill="white" x="-0.378906" y="-0.611328" width="21" height="23"/>
<path fill-rule="evenodd" clip-rule="evenodd" d="M9.96534 0.3969C8.85563 0.517798 7.88203 2.21437 7.26414 5.10394C7.19937 5.40672 7.19591 5.43999 7.2281 5.44857C7.24768 5.45378 7.34546 5.48926 7.44537 5.52738L7.62705 5.59673L7.7161 5.18337C7.99146 3.90534 8.28343 3.00318 8.67558 2.2188C9.01212 1.54558 9.37473 1.11153 9.75545 0.92616C9.90621 0.852765 9.92708 0.848316 10.1209 0.848316C10.3164 0.848316 10.3347 0.852323 10.4965 0.930503C10.7262 1.04149 11.0348 1.34317 11.2535 1.67061C11.429 1.93342 11.6973 2.45961 11.8396 2.81971C12.1129 3.51188 12.3769 4.43439 12.5524 5.31116L12.6101 5.59932L12.6657 5.57811C12.7167 5.55865 12.8913 5.49411 13.0027 5.45354L13.0488 5.43676L12.9774 5.10281C12.5633 3.1665 11.9938 1.76445 11.3156 1.01166C10.8966 0.546599 10.4515 0.343915 9.96534 0.3969ZM2.41616 4.91964C1.09746 5.03392 0.471686 5.6541 0.651291 6.66872C0.763994 7.30538 1.16699 8.01595 1.92486 8.91425C2.26277 9.31481 3.64566 10.6589 3.76284 10.7007C3.78206 10.7076 4.11126 10.4429 4.10964 10.4219C4.10904 10.4144 3.97095 10.2888 3.80275 10.1427C3.39196 9.78598 2.56486 8.96428 2.28912 8.63895C1.7032 7.94763 1.35287 7.39727 1.18636 6.90649C0.915542 6.10832 1.15773 5.64744 1.95602 5.44188C2.14455 5.39335 2.22444 5.38553 2.62693 5.37623C2.91117 5.36965 3.18616 5.37545 3.3546 5.39156C5.92465 5.63729 9.85399 7.27275 13.3633 9.55736C13.824 9.85729 14.755 10.5016 14.947 10.6535L15.0326 10.7212L15.2198 10.5778L15.407 10.4344L15.1663 10.2572C14.6874 9.90469 14.5142 9.78065 14.2407 9.59464C10.6107 7.12511 6.46218 5.31601 3.63607 4.97014C3.3025 4.92932 2.62708 4.90136 2.41616 4.91964ZM17.0765 4.92055C15.4432 5.04293 13.1901 5.72846 10.9244 6.79242L10.6257 6.93268L10.689 6.96974C10.8117 7.04166 11.1015 7.18417 11.1251 7.18417C11.1382 7.18417 11.3053 7.11398 11.4963 7.02817C13.5152 6.12158 15.4231 5.53988 16.8625 5.39212C17.1826 5.35927 17.8354 5.36455 18.0709 5.40189C19.0295 5.55384 19.3493 6.041 19.0564 6.90314C18.8869 7.40227 18.5448 7.94025 17.9526 8.63895C17.6849 8.95483 16.8578 9.77757 16.4559 10.1279C16.1855 10.3635 16.0566 10.4716 15.5998 10.8456C15.3203 11.0743 14.5294 11.654 13.9964 12.0208C12.2104 13.2498 10.0142 14.4554 8.13584 15.2381C7.93684 15.321 7.91657 15.3345 7.9176 15.3841C7.91923 15.4623 7.97077 15.7628 7.98495 15.7768C7.99703 15.7886 8.3749 15.6337 8.84745 15.4231C10.5536 14.6628 12.2967 13.7015 13.8752 12.6505C14.9263 11.9507 15.764 11.3199 16.6485 10.5624C17.0355 10.231 17.9837 9.29975 18.2634 8.97634C19.2929 7.78621 19.747 6.78745 19.5912 6.05616C19.4658 5.46775 18.9766 5.09338 18.1573 4.95886C17.9654 4.92736 17.3003 4.90377 17.0765 4.92055ZM6.97452 6.79938C6.9744 6.80809 6.95571 6.96226 6.93305 7.142C6.88359 7.53406 6.81365 8.27322 6.78343 8.72333C6.68147 10.2424 6.69427 12.2655 6.81493 13.6992C7.14643 17.6381 8.11123 20.5477 9.35834 21.3694C9.84827 21.6922 10.3923 21.693 10.8803 21.3715C12.0889 20.5751 13.0416 17.8028 13.3957 14.0522C13.4206 13.7883 13.4379 13.5488 13.4342 13.5201C13.4276 13.469 13.4238 13.4703 13.2242 13.5954C13.1123 13.6655 13.0083 13.73 12.9931 13.7388C12.9746 13.7494 12.9548 13.8636 12.9339 14.0801C12.6689 16.8324 12.0485 19.1398 11.2535 20.3303C11.0348 20.6577 10.7262 20.9594 10.4965 21.0704C10.3347 21.1486 10.3164 21.1526 10.1209 21.1526C9.92534 21.1526 9.90704 21.1486 9.74522 21.0704C9.51543 20.9594 9.20692 20.6577 8.98834 20.3303C7.47813 18.0681 6.77011 12.2385 7.38962 7.16699C7.42024 6.91625 7.44162 6.94811 7.17476 6.84688C6.9976 6.77967 6.97493 6.77429 6.97452 6.79938ZM6.1401 9.49664C5.01417 10.2846 4.6202 10.5804 3.9143 11.1676C3.25118 11.7193 2.42293 12.5141 1.97931 13.0245C0.648638 14.5556 0.282514 15.7841 0.940689 16.5096C1.19946 16.7949 1.60006 16.9727 2.17004 17.0552C2.47371 17.0991 3.18892 17.0884 3.62293 17.0333C4.30324 16.9471 5.25479 16.7371 5.91538 16.5275C6.33959 16.3929 6.5977 16.3096 6.64102 16.2934L6.69048 16.2748L6.65399 16.0621C6.63391 15.945 6.61362 15.8456 6.60887 15.841C6.60412 15.8365 6.48949 15.8699 6.35412 15.9153C5.96553 16.0456 5.50001 16.1816 5.05931 16.2937C4.11193 16.5346 3.4344 16.6345 2.74789 16.6347C1.60269 16.635 1.03616 16.2718 1.08132 15.5662C1.11779 14.9959 1.50739 14.2846 2.28925 13.3609C2.58156 13.0156 3.44607 12.164 3.9036 11.7707C4.52182 11.2393 5.27198 10.6592 6.01499 10.1378C6.1971 10.01 6.26719 9.94841 6.27472 9.90962C6.28611 9.85096 6.29574 9.39765 6.28557 9.39864C6.28209 9.399 6.21662 9.44309 6.1401 9.49664ZM16.3002 11.4267C16.2112 11.4996 16.1395 11.5687 16.1408 11.5803C16.1421 11.5919 16.2785 11.719 16.444 11.8628C16.8149 12.1852 17.6249 12.9828 17.87 13.267C18.5309 14.0335 18.876 14.5666 19.0578 15.1017C19.3257 15.8905 19.08 16.3543 18.2857 16.559C18.0962 16.6079 18.0186 16.6154 17.6074 16.6246C17.1213 16.6355 16.8466 16.6175 16.3703 16.5433C15.6617 16.433 14.7251 16.1961 13.8876 15.9153C13.7522 15.8699 13.6376 15.8365 13.6329 15.841C13.6281 15.8456 13.6078 15.945 13.5878 16.0621L13.5513 16.2748L13.5976 16.2922C13.9115 16.4098 14.6947 16.6402 15.2038 16.7648C16.1243 16.99 16.7601 17.0793 17.451 17.0805C17.9485 17.0814 18.128 17.063 18.4607 16.9775C19.3259 16.755 19.7365 16.1571 19.5905 15.3322C19.478 14.697 19.073 13.9829 18.3171 13.0868C17.979 12.6861 16.5961 11.342 16.4789 11.3002C16.4696 11.2968 16.3892 11.3538 16.3002 11.4267Z"/>
</mask>
<path fill-rule="evenodd" clip-rule="evenodd" d="M9.96534 0.3969C8.85563 0.517798 7.88203 2.21437 7.26414 5.10394C7.19937 5.40672 7.19591 5.43999 7.2281 5.44857C7.24768 5.45378 7.34546 5.48926 7.44537 5.52738L7.62705 5.59673L7.7161 5.18337C7.99146 3.90534 8.28343 3.00318 8.67558 2.2188C9.01212 1.54558 9.37473 1.11153 9.75545 0.92616C9.90621 0.852765 9.92708 0.848316 10.1209 0.848316C10.3164 0.848316 10.3347 0.852323 10.4965 0.930503C10.7262 1.04149 11.0348 1.34317 11.2535 1.67061C11.429 1.93342 11.6973 2.45961 11.8396 2.81971C12.1129 3.51188 12.3769 4.43439 12.5524 5.31116L12.6101 5.59932L12.6657 5.57811C12.7167 5.55865 12.8913 5.49411 13.0027 5.45354L13.0488 5.43676L12.9774 5.10281C12.5633 3.1665 11.9938 1.76445 11.3156 1.01166C10.8966 0.546599 10.4515 0.343915 9.96534 0.3969ZM2.41616 4.91964C1.09746 5.03392 0.471686 5.6541 0.651291 6.66872C0.763994 7.30538 1.16699 8.01595 1.92486 8.91425C2.26277 9.31481 3.64566 10.6589 3.76284 10.7007C3.78206 10.7076 4.11126 10.4429 4.10964 10.4219C4.10904 10.4144 3.97095 10.2888 3.80275 10.1427C3.39196 9.78598 2.56486 8.96428 2.28912 8.63895C1.7032 7.94763 1.35287 7.39727 1.18636 6.90649C0.915542 6.10832 1.15773 5.64744 1.95602 5.44188C2.14455 5.39335 2.22444 5.38553 2.62693 5.37623C2.91117 5.36965 3.18616 5.37545 3.3546 5.39156C5.92465 5.63729 9.85399 7.27275 13.3633 9.55736C13.824 9.85729 14.755 10.5016 14.947 10.6535L15.0326 10.7212L15.2198 10.5778L15.407 10.4344L15.1663 10.2572C14.6874 9.90469 14.5142 9.78065 14.2407 9.59464C10.6107 7.12511 6.46218 5.31601 3.63607 4.97014C3.3025 4.92932 2.62708 4.90136 2.41616 4.91964ZM17.0765 4.92055C15.4432 5.04293 13.1901 5.72846 10.9244 6.79242L10.6257 6.93268L10.689 6.96974C10.8117 7.04166 11.1015 7.18417 11.1251 7.18417C11.1382 7.18417 11.3053 7.11398 11.4963 7.02817C13.5152 6.12158 15.4231 5.53988 16.8625 5.39212C17.1826 5.35927 17.8354 5.36455 18.0709 5.40189C19.0295 5.55384 19.3493 6.041 19.0564 6.90314C18.8869 7.40227 18.5448 7.94025 17.9526 8.63895C17.6849 8.95483 16.8578 9.77757 16.4559 10.1279C16.1855 10.3635 16.0566 10.4716 15.5998 10.8456C15.3203 11.0743 14.5294 11.654 13.9964 12.0208C12.2104 13.2498 10.0142 14.4554 8.13584 15.2381C7.93684 15.321 7.91657 15.3345 7.9176 15.3841C7.91923 15.4623 7.97077 15.7628 7.98495 15.7768C7.99703 15.7886 8.3749 15.6337 8.84745 15.4231C10.5536 14.6628 12.2967 13.7015 13.8752 12.6505C14.9263 11.9507 15.764 11.3199 16.6485 10.5624C17.0355 10.231 17.9837 9.29975 18.2634 8.97634C19.2929 7.78621 19.747 6.78745 19.5912 6.05616C19.4658 5.46775 18.9766 5.09338 18.1573 4.95886C17.9654 4.92736 17.3003 4.90377 17.0765 4.92055ZM6.97452 6.79938C6.9744 6.80809 6.95571 6.96226 6.93305 7.142C6.88359 7.53406 6.81365 8.27322 6.78343 8.72333C6.68147 10.2424 6.69427 12.2655 6.81493 13.6992C7.14643 17.6381 8.11123 20.5477 9.35834 21.3694C9.84827 21.6922 10.3923 21.693 10.8803 21.3715C12.0889 20.5751 13.0416 17.8028 13.3957 14.0522C13.4206 13.7883 13.4379 13.5488 13.4342 13.5201C13.4276 13.469 13.4238 13.4703 13.2242 13.5954C13.1123 13.6655 13.0083 13.73 12.9931 13.7388C12.9746 13.7494 12.9548 13.8636 12.9339 14.0801C12.6689 16.8324 12.0485 19.1398 11.2535 20.3303C11.0348 20.6577 10.7262 20.9594 10.4965 21.0704C10.3347 21.1486 10.3164 21.1526 10.1209 21.1526C9.92534 21.1526 9.90704 21.1486 9.74522 21.0704C9.51543 20.9594 9.20692 20.6577 8.98834 20.3303C7.47813 18.0681 6.77011 12.2385 7.38962 7.16699C7.42024 6.91625 7.44162 6.94811 7.17476 6.84688C6.9976 6.77967 6.97493 6.77429 6.97452 6.79938ZM6.1401 9.49664C5.01417 10.2846 4.6202 10.5804 3.9143 11.1676C3.25118 11.7193 2.42293 12.5141 1.97931 13.0245C0.648638 14.5556 0.282514 15.7841 0.940689 16.5096C1.19946 16.7949 1.60006 16.9727 2.17004 17.0552C2.47371 17.0991 3.18892 17.0884 3.62293 17.0333C4.30324 16.9471 5.25479 16.7371 5.91538 16.5275C6.33959 16.3929 6.5977 16.3096 6.64102 16.2934L6.69048 16.2748L6.65399 16.0621C6.63391 15.945 6.61362 15.8456 6.60887 15.841C6.60412 15.8365 6.48949 15.8699 6.35412 15.9153C5.96553 16.0456 5.50001 16.1816 5.05931 16.2937C4.11193 16.5346 3.4344 16.6345 2.74789 16.6347C1.60269 16.635 1.03616 16.2718 1.08132 15.5662C1.11779 14.9959 1.50739 14.2846 2.28925 13.3609C2.58156 13.0156 3.44607 12.164 3.9036 11.7707C4.52182 11.2393 5.27198 10.6592 6.01499 10.1378C6.1971 10.01 6.26719 9.94841 6.27472 9.90962C6.28611 9.85096 6.29574 9.39765 6.28557 9.39864C6.28209 9.399 6.21662 9.44309 6.1401 9.49664ZM16.3002 11.4267C16.2112 11.4996 16.1395 11.5687 16.1408 11.5803C16.1421 11.5919 16.2785 11.719 16.444 11.8628C16.8149 12.1852 17.6249 12.9828 17.87 13.267C18.5309 14.0335 18.876 14.5666 19.0578 15.1017C19.3257 15.8905 19.08 16.3543 18.2857 16.559C18.0962 16.6079 18.0186 16.6154 17.6074 16.6246C17.1213 16.6355 16.8466 16.6175 16.3703 16.5433C15.6617 16.433 14.7251 16.1961 13.8876 15.9153C13.7522 15.8699 13.6376 15.8365 13.6329 15.841C13.6281 15.8456 13.6078 15.945 13.5878 16.0621L13.5513 16.2748L13.5976 16.2922C13.9115 16.4098 14.6947 16.6402 15.2038 16.7648C16.1243 16.99 16.7601 17.0793 17.451 17.0805C17.9485 17.0814 18.128 17.063 18.4607 16.9775C19.3259 16.755 19.7365 16.1571 19.5905 15.3322C19.478 14.697 19.073 13.9829 18.3171 13.0868C17.979 12.6861 16.5961 11.342 16.4789 11.3002C16.4696 11.2968 16.3892 11.3538 16.3002 11.4267Z" fill="white"/>
<path fill-rule="evenodd" clip-rule="evenodd" d="M9.96534 0.3969C8.85563 0.517798 7.88203 2.21437 7.26414 5.10394C7.19937 5.40672 7.19591 5.43999 7.2281 5.44857C7.24768 5.45378 7.34546 5.48926 7.44537 5.52738L7.62705 5.59673L7.7161 5.18337C7.99146 3.90534 8.28343 3.00318 8.67558 2.2188C9.01212 1.54558 9.37473 1.11153 9.75545 0.92616C9.90621 0.852765 9.92708 0.848316 10.1209 0.848316C10.3164 0.848316 10.3347 0.852323 10.4965 0.930503C10.7262 1.04149 11.0348 1.34317 11.2535 1.67061C11.429 1.93342 11.6973 2.45961 11.8396 2.81971C12.1129 3.51188 12.3769 4.43439 12.5524 5.31116L12.6101 5.59932L12.6657 5.57811C12.7167 5.55865 12.8913 5.49411 13.0027 5.45354L13.0488 5.43676L12.9774 5.10281C12.5633 3.1665 11.9938 1.76445 11.3156 1.01166C10.8966 0.546599 10.4515 0.343915 9.96534 0.3969ZM2.41616 4.91964C1.09746 5.03392 0.471686 5.6541 0.651291 6.66872C0.763994 7.30538 1.16699 8.01595 1.92486 8.91425C2.26277 9.31481 3.64566 10.6589 3.76284 10.7007C3.78206 10.7076 4.11126 10.4429 4.10964 10.4219C4.10904 10.4144 3.97095 10.2888 3.80275 10.1427C3.39196 9.78598 2.56486 8.96428 2.28912 8.63895C1.7032 7.94763 1.35287 7.39727 1.18636 6.90649C0.915542 6.10832 1.15773 5.64744 1.95602 5.44188C2.14455 5.39335 2.22444 5.38553 2.62693 5.37623C2.91117 5.36965 3.18616 5.37545 3.3546 5.39156C5.92465 5.63729 9.85399 7.27275 13.3633 9.55736C13.824 9.85729 14.755 10.5016 14.947 10.6535L15.0326 10.7212L15.2198 10.5778L15.407 10.4344L15.1663 10.2572C14.6874 9.90469 14.5142 9.78065 14.2407 9.59464C10.6107 7.12511 6.46218 5.31601 3.63607 4.97014C3.3025 4.92932 2.62708 4.90136 2.41616 4.91964ZM17.0765 4.92055C15.4432 5.04293 13.1901 5.72846 10.9244 6.79242L10.6257 6.93268L10.689 6.96974C10.8117 7.04166 11.1015 7.18417 11.1251 7.18417C11.1382 7.18417 11.3053 7.11398 11.4963 7.02817C13.5152 6.12158 15.4231 5.53988 16.8625 5.39212C17.1826 5.35927 17.8354 5.36455 18.0709 5.40189C19.0295 5.55384 19.3493 6.041 19.0564 6.90314C18.8869 7.40227 18.5448 7.94025 17.9526 8.63895C17.6849 8.95483 16.8578 9.77757 16.4559 10.1279C16.1855 10.3635 16.0566 10.4716 15.5998 10.8456C15.3203 11.0743 14.5294 11.654 13.9964 12.0208C12.2104 13.2498 10.0142 14.4554 8.13584 15.2381C7.93684 15.321 7.91657 15.3345 7.9176 15.3841C7.91923 15.4623 7.97077 15.7628 7.98495 15.7768C7.99703 15.7886 8.3749 15.6337 8.84745 15.4231C10.5536 14.6628 12.2967 13.7015 13.8752 12.6505C14.9263 11.9507 15.764 11.3199 16.6485 10.5624C17.0355 10.231 17.9837 9.29975 18.2634 8.97634C19.2929 7.78621 19.747 6.78745 19.5912 6.05616C19.4658 5.46775 18.9766 5.09338 18.1573 4.95886C17.9654 4.92736 17.3003 4.90377 17.0765 4.92055ZM6.97452 6.79938C6.9744 6.80809 6.95571 6.96226 6.93305 7.142C6.88359 7.53406 6.81365 8.27322 6.78343 8.72333C6.68147 10.2424 6.69427 12.2655 6.81493 13.6992C7.14643 17.6381 8.11123 20.5477 9.35834 21.3694C9.84827 21.6922 10.3923 21.693 10.8803 21.3715C12.0889 20.5751 13.0416 17.8028 13.3957 14.0522C13.4206 13.7883 13.4379 13.5488 13.4342 13.5201C13.4276 13.469 13.4238 13.4703 13.2242 13.5954C13.1123 13.6655 13.0083 13.73 12.9931 13.7388C12.9746 13.7494 12.9548 13.8636 12.9339 14.0801C12.6689 16.8324 12.0485 19.1398 11.2535 20.3303C11.0348 20.6577 10.7262 20.9594 10.4965 21.0704C10.3347 21.1486 10.3164 21.1526 10.1209 21.1526C9.92534 21.1526 9.90704 21.1486 9.74522 21.0704C9.51543 20.9594 9.20692 20.6577 8.98834 20.3303C7.47813 18.0681 6.77011 12.2385 7.38962 7.16699C7.42024 6.91625 7.44162 6.94811 7.17476 6.84688C6.9976 6.77967 6.97493 6.77429 6.97452 6.79938ZM6.1401 9.49664C5.01417 10.2846 4.6202 10.5804 3.9143 11.1676C3.25118 11.7193 2.42293 12.5141 1.97931 13.0245C0.648638 14.5556 0.282514 15.7841 0.940689 16.5096C1.19946 16.7949 1.60006 16.9727 2.17004 17.0552C2.47371 17.0991 3.18892 17.0884 3.62293 17.0333C4.30324 16.9471 5.25479 16.7371 5.91538 16.5275C6.33959 16.3929 6.5977 16.3096 6.64102 16.2934L6.69048 16.2748L6.65399 16.0621C6.63391 15.945 6.61362 15.8456 6.60887 15.841C6.60412 15.8365 6.48949 15.8699 6.35412 15.9153C5.96553 16.0456 5.50001 16.1816 5.05931 16.2937C4.11193 16.5346 3.4344 16.6345 2.74789 16.6347C1.60269 16.635 1.03616 16.2718 1.08132 15.5662C1.11779 14.9959 1.50739 14.2846 2.28925 13.3609C2.58156 13.0156 3.44607 12.164 3.9036 11.7707C4.52182 11.2393 5.27198 10.6592 6.01499 10.1378C6.1971 10.01 6.26719 9.94841 6.27472 9.90962C6.28611 9.85096 6.29574 9.39765 6.28557 9.39864C6.28209 9.399 6.21662 9.44309 6.1401 9.49664ZM16.3002 11.4267C16.2112 11.4996 16.1395 11.5687 16.1408 11.5803C16.1421 11.5919 16.2785 11.719 16.444 11.8628C16.8149 12.1852 17.6249 12.9828 17.87 13.267C18.5309 14.0335 18.876 14.5666 19.0578 15.1017C19.3257 15.8905 19.08 16.3543 18.2857 16.559C18.0962 16.6079 18.0186 16.6154 17.6074 16.6246C17.1213 16.6355 16.8466 16.6175 16.3703 16.5433C15.6617 16.433 14.7251 16.1961 13.8876 15.9153C13.7522 15.8699 13.6376 15.8365 13.6329 15.841C13.6281 15.8456 13.6078 15.945 13.5878 16.0621L13.5513 16.2748L13.5976 16.2922C13.9115 16.4098 14.6947 16.6402 15.2038 16.7648C16.1243 16.99 16.7601 17.0793 17.451 17.0805C17.9485 17.0814 18.128 17.063 18.4607 16.9775C19.3259 16.755 19.7365 16.1571 19.5905 15.3322C19.478 14.697 19.073 13.9829 18.3171 13.0868C17.979 12.6861 16.5961 11.342 16.4789 11.3002C16.4696 11.2968 16.3892 11.3538 16.3002 11.4267Z" stroke="white" stroke-width="0.586665" mask="url(#path-1-outside-1_982_973)"/>
</svg>
