<svg
          width="50"
          height="68"
          viewBox="0 0 34 38"
          fill="none"
          xmlns="http://www.w3.org/2000/svg"
        >
          <mask
            id="path-1-outside-1_80_3415"
            maskUnits="userSpaceOnUse"
            x="0"
            y="0"
            width="34"
            height="38"
            fill="black"
          >
            <rect fill="white" width="34" height="38" />
            <path
              fill-rule="evenodd"
              clip-rule="evenodd"
              d="M16.8235 1.01393C14.9443 1.21866 13.2956 4.09163 12.2493 8.9848C12.1396 9.49751 12.1337 9.55385 12.1882 9.56838C12.2214 9.5772 12.387 9.63729 12.5562 9.70185L12.8638 9.81928L13.0146 9.1193C13.4809 6.95509 13.9753 5.42739 14.6394 4.09912C15.2093 2.95909 15.8233 2.22409 16.468 1.91018C16.7233 1.78589 16.7587 1.77836 17.0868 1.77836C17.4179 1.77836 17.4489 1.78514 17.723 1.91753C18.112 2.10548 18.6344 2.61633 19.0048 3.17082C19.3019 3.61587 19.7564 4.5069 19.9972 5.11669C20.4602 6.28882 20.9071 7.85098 21.2044 9.3357L21.3021 9.82367L21.3962 9.78775C21.4826 9.7548 21.7782 9.6455 21.9669 9.57681L22.045 9.54839L21.924 8.98287C21.2229 5.70395 20.2585 3.32974 19.11 2.05496C18.4005 1.26743 17.6467 0.924209 16.8235 1.01393ZM4.03975 8.67271C1.80667 8.86623 0.746994 9.91643 1.05114 11.6346C1.24199 12.7127 1.92442 13.916 3.20778 15.4371C3.78001 16.1154 6.12178 18.3916 6.3202 18.4623C6.35275 18.4739 6.91022 18.0258 6.90747 17.9903C6.90645 17.9775 6.67262 17.7647 6.38779 17.5174C5.69217 16.9133 4.29156 15.5219 3.82462 14.9709C2.83243 13.8003 2.23918 12.8683 1.95722 12.0372C1.49862 10.6856 1.90873 9.90515 3.26055 9.55707C3.57981 9.47488 3.7151 9.46163 4.39666 9.44588C4.87799 9.43474 5.34367 9.44456 5.62889 9.47184C9.981 9.88797 16.6349 12.6574 22.5775 16.5262C23.3576 17.0341 24.9342 18.1252 25.2594 18.3824L25.4044 18.497L25.7213 18.2542L26.0383 18.0114L25.6307 17.7113C24.8198 17.1143 24.5264 16.9043 24.0634 16.5893C17.9163 12.4074 10.8913 9.34391 6.10554 8.75822C5.54068 8.6891 4.39692 8.64175 4.03975 8.67271ZM28.8655 8.67425C26.0997 8.88147 22.2843 10.0424 18.4475 11.8441L17.9418 12.0816L18.0488 12.1443C18.2566 12.2661 18.7474 12.5074 18.7873 12.5074C18.8096 12.5074 19.0925 12.3886 19.416 12.2433C22.8347 10.7081 26.0656 9.72302 28.503 9.4728C29.0451 9.41718 30.1505 9.4261 30.5494 9.48933C32.1726 9.74665 32.7141 10.5716 32.2183 12.0315C31.9312 12.8768 31.3518 13.7878 30.3491 14.9709C29.8957 15.5059 28.4952 16.8991 27.8144 17.4923C27.3566 17.8914 27.1383 18.0744 26.3648 18.7076C25.8916 19.0949 24.5523 20.0766 23.6496 20.6978C20.6252 22.7789 16.9062 24.8205 13.7254 26.1458C13.3884 26.2862 13.3541 26.3092 13.3558 26.3931C13.3586 26.5256 13.4459 27.0344 13.4699 27.0581C13.4903 27.0782 14.1302 26.8158 14.9304 26.4592C17.8195 25.1717 20.7714 23.5439 23.4444 21.7641C25.2243 20.579 26.6429 19.5109 28.1406 18.2282C28.796 17.667 30.4016 16.0899 30.8754 15.5423C32.6187 13.5269 33.3877 11.8356 33.1237 10.5973C32.9114 9.60087 32.083 8.96691 30.6957 8.73912C30.3707 8.68578 29.2445 8.64583 28.8655 8.67425ZM11.7588 11.8558C11.7586 11.8706 11.727 12.1317 11.6886 12.436C11.6049 13.0999 11.4864 14.3516 11.4352 15.1138C11.2626 17.6863 11.2843 21.1121 11.4886 23.54C12.0499 30.21 13.6837 35.1371 15.7956 36.5286C16.6252 37.0753 17.5465 37.0766 18.3728 36.5321C20.4195 35.1835 22.0328 30.4889 22.6324 24.1377C22.6745 23.6907 22.7039 23.2853 22.6976 23.2367C22.6864 23.15 22.68 23.1523 22.3419 23.3642C22.1526 23.4828 21.9765 23.5921 21.9506 23.6069C21.9193 23.6249 21.8858 23.8184 21.8505 24.185C21.4016 28.8456 20.351 32.753 19.0048 34.7689C18.6344 35.3234 18.112 35.8343 17.723 36.0222C17.4489 36.1546 17.4179 36.1614 17.0868 36.1614C16.7557 36.1614 16.7247 36.1546 16.4507 36.0222C16.0616 35.8342 15.5392 35.3234 15.169 34.7689C12.6117 30.9382 11.4127 21.0664 12.4618 12.4783C12.5136 12.0537 12.5498 12.1077 12.0979 11.9363C11.7979 11.8225 11.7595 11.8133 11.7588 11.8558ZM10.3458 16.4234C8.4392 17.7577 7.77205 18.2586 6.57669 19.253C5.45377 20.1872 4.05121 21.5331 3.29998 22.3975C1.04664 24.9902 0.426652 27.0705 1.5412 28.2991C1.9794 28.7821 2.65778 29.0832 3.62297 29.2229C4.13721 29.2973 5.34834 29.2791 6.08329 29.1859C7.23531 29.0398 8.84666 28.6842 9.96531 28.3293C10.6837 28.1014 11.1207 27.9604 11.1941 27.9329L11.2778 27.9015L11.2161 27.5412C11.1821 27.343 11.1477 27.1746 11.1397 27.1669C11.1316 27.1592 10.9375 27.2158 10.7083 27.2927C10.0502 27.5133 9.26192 27.7437 8.51563 27.9334C6.91135 28.3413 5.76404 28.5106 4.6015 28.5109C2.66224 28.5114 1.70288 27.8964 1.77935 26.7015C1.8411 25.7358 2.50085 24.5313 3.82484 22.9671C4.31983 22.3823 5.78379 20.9402 6.55857 20.2743C7.60545 19.3744 8.87577 18.392 10.134 17.509C10.4424 17.2926 10.5611 17.1884 10.5738 17.1227C10.5931 17.0234 10.6094 16.2557 10.5922 16.2574C10.5863 16.258 10.4754 16.3327 10.3458 16.4234ZM27.5509 19.6916C27.4002 19.8151 27.2788 19.9321 27.2809 19.9517C27.2831 19.9714 27.5141 20.1867 27.7943 20.4302C28.4225 20.9761 29.7941 22.3268 30.2091 22.8081C31.3283 24.1061 31.9128 25.0087 32.2206 25.915C32.6743 27.2507 32.2582 28.0361 30.9131 28.3828C30.5922 28.4655 30.4608 28.4782 29.7645 28.4938C28.9414 28.5123 28.4762 28.4817 27.6696 28.3561C26.4696 28.1693 24.8835 27.7682 23.4654 27.2927C23.2362 27.2158 23.0421 27.1592 23.034 27.1669C23.026 27.1746 22.9916 27.343 22.9576 27.5412L22.8958 27.9015L22.9744 27.9309C23.5059 28.13 24.8322 28.5203 25.6943 28.7312C27.2531 29.1126 28.3297 29.2638 29.4997 29.2658C30.342 29.2673 30.6461 29.2362 31.2094 29.0913C32.6746 28.7146 33.3698 27.7021 33.1225 26.3052C32.9321 25.2296 32.2463 24.0203 30.9662 22.5029C30.3937 21.8243 28.0519 19.5482 27.8535 19.4774C27.8378 19.4718 27.7016 19.5682 27.5509 19.6916Z"
            />
          </mask>
          <path
            fill-rule="evenodd"
            clip-rule="evenodd"
            d="M16.8235 1.01393C14.9443 1.21866 13.2956 4.09163 12.2493 8.9848C12.1396 9.49751 12.1337 9.55385 12.1882 9.56838C12.2214 9.5772 12.387 9.63729 12.5562 9.70185L12.8638 9.81928L13.0146 9.1193C13.4809 6.95509 13.9753 5.42739 14.6394 4.09912C15.2093 2.95909 15.8233 2.22409 16.468 1.91018C16.7233 1.78589 16.7587 1.77836 17.0868 1.77836C17.4179 1.77836 17.4489 1.78514 17.723 1.91753C18.112 2.10548 18.6344 2.61633 19.0048 3.17082C19.3019 3.61587 19.7564 4.5069 19.9972 5.11669C20.4602 6.28882 20.9071 7.85098 21.2044 9.3357L21.3021 9.82367L21.3962 9.78775C21.4826 9.7548 21.7782 9.6455 21.9669 9.57681L22.045 9.54839L21.924 8.98287C21.2229 5.70395 20.2585 3.32974 19.11 2.05496C18.4005 1.26743 17.6467 0.924209 16.8235 1.01393ZM4.03975 8.67271C1.80667 8.86623 0.746994 9.91643 1.05114 11.6346C1.24199 12.7127 1.92442 13.916 3.20778 15.4371C3.78001 16.1154 6.12178 18.3916 6.3202 18.4623C6.35275 18.4739 6.91022 18.0258 6.90747 17.9903C6.90645 17.9775 6.67262 17.7647 6.38779 17.5174C5.69217 16.9133 4.29156 15.5219 3.82462 14.9709C2.83243 13.8003 2.23918 12.8683 1.95722 12.0372C1.49862 10.6856 1.90873 9.90515 3.26055 9.55707C3.57981 9.47488 3.7151 9.46163 4.39666 9.44588C4.87799 9.43474 5.34367 9.44456 5.62889 9.47184C9.981 9.88797 16.6349 12.6574 22.5775 16.5262C23.3576 17.0341 24.9342 18.1252 25.2594 18.3824L25.4044 18.497L25.7213 18.2542L26.0383 18.0114L25.6307 17.7113C24.8198 17.1143 24.5264 16.9043 24.0634 16.5893C17.9163 12.4074 10.8913 9.34391 6.10554 8.75822C5.54068 8.6891 4.39692 8.64175 4.03975 8.67271ZM28.8655 8.67425C26.0997 8.88147 22.2843 10.0424 18.4475 11.8441L17.9418 12.0816L18.0488 12.1443C18.2566 12.2661 18.7474 12.5074 18.7873 12.5074C18.8096 12.5074 19.0925 12.3886 19.416 12.2433C22.8347 10.7081 26.0656 9.72302 28.503 9.4728C29.0451 9.41718 30.1505 9.4261 30.5494 9.48933C32.1726 9.74665 32.7141 10.5716 32.2183 12.0315C31.9312 12.8768 31.3518 13.7878 30.3491 14.9709C29.8957 15.5059 28.4952 16.8991 27.8144 17.4923C27.3566 17.8914 27.1383 18.0744 26.3648 18.7076C25.8916 19.0949 24.5523 20.0766 23.6496 20.6978C20.6252 22.7789 16.9062 24.8205 13.7254 26.1458C13.3884 26.2862 13.3541 26.3092 13.3558 26.3931C13.3586 26.5256 13.4459 27.0344 13.4699 27.0581C13.4903 27.0782 14.1302 26.8158 14.9304 26.4592C17.8195 25.1717 20.7714 23.5439 23.4444 21.7641C25.2243 20.579 26.6429 19.5109 28.1406 18.2282C28.796 17.667 30.4016 16.0899 30.8754 15.5423C32.6187 13.5269 33.3877 11.8356 33.1237 10.5973C32.9114 9.60087 32.083 8.96691 30.6957 8.73912C30.3707 8.68578 29.2445 8.64583 28.8655 8.67425ZM11.7588 11.8558C11.7586 11.8706 11.727 12.1317 11.6886 12.436C11.6049 13.0999 11.4864 14.3516 11.4352 15.1138C11.2626 17.6863 11.2843 21.1121 11.4886 23.54C12.0499 30.21 13.6837 35.1371 15.7956 36.5286C16.6252 37.0753 17.5465 37.0766 18.3728 36.5321C20.4195 35.1835 22.0328 30.4889 22.6324 24.1377C22.6745 23.6907 22.7039 23.2853 22.6976 23.2367C22.6864 23.15 22.68 23.1523 22.3419 23.3642C22.1526 23.4828 21.9765 23.5921 21.9506 23.6069C21.9193 23.6249 21.8858 23.8184 21.8505 24.185C21.4016 28.8456 20.351 32.753 19.0048 34.7689C18.6344 35.3234 18.112 35.8343 17.723 36.0222C17.4489 36.1546 17.4179 36.1614 17.0868 36.1614C16.7557 36.1614 16.7247 36.1546 16.4507 36.0222C16.0616 35.8342 15.5392 35.3234 15.169 34.7689C12.6117 30.9382 11.4127 21.0664 12.4618 12.4783C12.5136 12.0537 12.5498 12.1077 12.0979 11.9363C11.7979 11.8225 11.7595 11.8133 11.7588 11.8558ZM10.3458 16.4234C8.4392 17.7577 7.77205 18.2586 6.57669 19.253C5.45377 20.1872 4.05121 21.5331 3.29998 22.3975C1.04664 24.9902 0.426652 27.0705 1.5412 28.2991C1.9794 28.7821 2.65778 29.0832 3.62297 29.2229C4.13721 29.2973 5.34834 29.2791 6.08329 29.1859C7.23531 29.0398 8.84666 28.6842 9.96531 28.3293C10.6837 28.1014 11.1207 27.9604 11.1941 27.9329L11.2778 27.9015L11.2161 27.5412C11.1821 27.343 11.1477 27.1746 11.1397 27.1669C11.1316 27.1592 10.9375 27.2158 10.7083 27.2927C10.0502 27.5133 9.26192 27.7437 8.51563 27.9334C6.91135 28.3413 5.76404 28.5106 4.6015 28.5109C2.66224 28.5114 1.70288 27.8964 1.77935 26.7015C1.8411 25.7358 2.50085 24.5313 3.82484 22.9671C4.31983 22.3823 5.78379 20.9402 6.55857 20.2743C7.60545 19.3744 8.87577 18.392 10.134 17.509C10.4424 17.2926 10.5611 17.1884 10.5738 17.1227C10.5931 17.0234 10.6094 16.2557 10.5922 16.2574C10.5863 16.258 10.4754 16.3327 10.3458 16.4234ZM27.5509 19.6916C27.4002 19.8151 27.2788 19.9321 27.2809 19.9517C27.2831 19.9714 27.5141 20.1867 27.7943 20.4302C28.4225 20.9761 29.7941 22.3268 30.2091 22.8081C31.3283 24.1061 31.9128 25.0087 32.2206 25.915C32.6743 27.2507 32.2582 28.0361 30.9131 28.3828C30.5922 28.4655 30.4608 28.4782 29.7645 28.4938C28.9414 28.5123 28.4762 28.4817 27.6696 28.3561C26.4696 28.1693 24.8835 27.7682 23.4654 27.2927C23.2362 27.2158 23.0421 27.1592 23.034 27.1669C23.026 27.1746 22.9916 27.343 22.9576 27.5412L22.8958 27.9015L22.9744 27.9309C23.5059 28.13 24.8322 28.5203 25.6943 28.7312C27.2531 29.1126 28.3297 29.2638 29.4997 29.2658C30.342 29.2673 30.6461 29.2362 31.2094 29.0913C32.6746 28.7146 33.3698 27.7021 33.1225 26.3052C32.9321 25.2296 32.2463 24.0203 30.9662 22.5029C30.3937 21.8243 28.0519 19.5482 27.8535 19.4774C27.8378 19.4718 27.7016 19.5682 27.5509 19.6916Z"
            fill="url(#paint0_linear_80_3415)"
          />
          <path
            fill-rule="evenodd"
            clip-rule="evenodd"
            d="M16.8235 1.01393C14.9443 1.21866 13.2956 4.09163 12.2493 8.9848C12.1396 9.49751 12.1337 9.55385 12.1882 9.56838C12.2214 9.5772 12.387 9.63729 12.5562 9.70185L12.8638 9.81928L13.0146 9.1193C13.4809 6.95509 13.9753 5.42739 14.6394 4.09912C15.2093 2.95909 15.8233 2.22409 16.468 1.91018C16.7233 1.78589 16.7587 1.77836 17.0868 1.77836C17.4179 1.77836 17.4489 1.78514 17.723 1.91753C18.112 2.10548 18.6344 2.61633 19.0048 3.17082C19.3019 3.61587 19.7564 4.5069 19.9972 5.11669C20.4602 6.28882 20.9071 7.85098 21.2044 9.3357L21.3021 9.82367L21.3962 9.78775C21.4826 9.7548 21.7782 9.6455 21.9669 9.57681L22.045 9.54839L21.924 8.98287C21.2229 5.70395 20.2585 3.32974 19.11 2.05496C18.4005 1.26743 17.6467 0.924209 16.8235 1.01393ZM4.03975 8.67271C1.80667 8.86623 0.746994 9.91643 1.05114 11.6346C1.24199 12.7127 1.92442 13.916 3.20778 15.4371C3.78001 16.1154 6.12178 18.3916 6.3202 18.4623C6.35275 18.4739 6.91022 18.0258 6.90747 17.9903C6.90645 17.9775 6.67262 17.7647 6.38779 17.5174C5.69217 16.9133 4.29156 15.5219 3.82462 14.9709C2.83243 13.8003 2.23918 12.8683 1.95722 12.0372C1.49862 10.6856 1.90873 9.90515 3.26055 9.55707C3.57981 9.47488 3.7151 9.46163 4.39666 9.44588C4.87799 9.43474 5.34367 9.44456 5.62889 9.47184C9.981 9.88797 16.6349 12.6574 22.5775 16.5262C23.3576 17.0341 24.9342 18.1252 25.2594 18.3824L25.4044 18.497L25.7213 18.2542L26.0383 18.0114L25.6307 17.7113C24.8198 17.1143 24.5264 16.9043 24.0634 16.5893C17.9163 12.4074 10.8913 9.34391 6.10554 8.75822C5.54068 8.6891 4.39692 8.64175 4.03975 8.67271ZM28.8655 8.67425C26.0997 8.88147 22.2843 10.0424 18.4475 11.8441L17.9418 12.0816L18.0488 12.1443C18.2566 12.2661 18.7474 12.5074 18.7873 12.5074C18.8096 12.5074 19.0925 12.3886 19.416 12.2433C22.8347 10.7081 26.0656 9.72302 28.503 9.4728C29.0451 9.41718 30.1505 9.4261 30.5494 9.48933C32.1726 9.74665 32.7141 10.5716 32.2183 12.0315C31.9312 12.8768 31.3518 13.7878 30.3491 14.9709C29.8957 15.5059 28.4952 16.8991 27.8144 17.4923C27.3566 17.8914 27.1383 18.0744 26.3648 18.7076C25.8916 19.0949 24.5523 20.0766 23.6496 20.6978C20.6252 22.7789 16.9062 24.8205 13.7254 26.1458C13.3884 26.2862 13.3541 26.3092 13.3558 26.3931C13.3586 26.5256 13.4459 27.0344 13.4699 27.0581C13.4903 27.0782 14.1302 26.8158 14.9304 26.4592C17.8195 25.1717 20.7714 23.5439 23.4444 21.7641C25.2243 20.579 26.6429 19.5109 28.1406 18.2282C28.796 17.667 30.4016 16.0899 30.8754 15.5423C32.6187 13.5269 33.3877 11.8356 33.1237 10.5973C32.9114 9.60087 32.083 8.96691 30.6957 8.73912C30.3707 8.68578 29.2445 8.64583 28.8655 8.67425ZM11.7588 11.8558C11.7586 11.8706 11.727 12.1317 11.6886 12.436C11.6049 13.0999 11.4864 14.3516 11.4352 15.1138C11.2626 17.6863 11.2843 21.1121 11.4886 23.54C12.0499 30.21 13.6837 35.1371 15.7956 36.5286C16.6252 37.0753 17.5465 37.0766 18.3728 36.5321C20.4195 35.1835 22.0328 30.4889 22.6324 24.1377C22.6745 23.6907 22.7039 23.2853 22.6976 23.2367C22.6864 23.15 22.68 23.1523 22.3419 23.3642C22.1526 23.4828 21.9765 23.5921 21.9506 23.6069C21.9193 23.6249 21.8858 23.8184 21.8505 24.185C21.4016 28.8456 20.351 32.753 19.0048 34.7689C18.6344 35.3234 18.112 35.8343 17.723 36.0222C17.4489 36.1546 17.4179 36.1614 17.0868 36.1614C16.7557 36.1614 16.7247 36.1546 16.4507 36.0222C16.0616 35.8342 15.5392 35.3234 15.169 34.7689C12.6117 30.9382 11.4127 21.0664 12.4618 12.4783C12.5136 12.0537 12.5498 12.1077 12.0979 11.9363C11.7979 11.8225 11.7595 11.8133 11.7588 11.8558ZM10.3458 16.4234C8.4392 17.7577 7.77205 18.2586 6.57669 19.253C5.45377 20.1872 4.05121 21.5331 3.29998 22.3975C1.04664 24.9902 0.426652 27.0705 1.5412 28.2991C1.9794 28.7821 2.65778 29.0832 3.62297 29.2229C4.13721 29.2973 5.34834 29.2791 6.08329 29.1859C7.23531 29.0398 8.84666 28.6842 9.96531 28.3293C10.6837 28.1014 11.1207 27.9604 11.1941 27.9329L11.2778 27.9015L11.2161 27.5412C11.1821 27.343 11.1477 27.1746 11.1397 27.1669C11.1316 27.1592 10.9375 27.2158 10.7083 27.2927C10.0502 27.5133 9.26192 27.7437 8.51563 27.9334C6.91135 28.3413 5.76404 28.5106 4.6015 28.5109C2.66224 28.5114 1.70288 27.8964 1.77935 26.7015C1.8411 25.7358 2.50085 24.5313 3.82484 22.9671C4.31983 22.3823 5.78379 20.9402 6.55857 20.2743C7.60545 19.3744 8.87577 18.392 10.134 17.509C10.4424 17.2926 10.5611 17.1884 10.5738 17.1227C10.5931 17.0234 10.6094 16.2557 10.5922 16.2574C10.5863 16.258 10.4754 16.3327 10.3458 16.4234ZM27.5509 19.6916C27.4002 19.8151 27.2788 19.9321 27.2809 19.9517C27.2831 19.9714 27.5141 20.1867 27.7943 20.4302C28.4225 20.9761 29.7941 22.3268 30.2091 22.8081C31.3283 24.1061 31.9128 25.0087 32.2206 25.915C32.6743 27.2507 32.2582 28.0361 30.9131 28.3828C30.5922 28.4655 30.4608 28.4782 29.7645 28.4938C28.9414 28.5123 28.4762 28.4817 27.6696 28.3561C26.4696 28.1693 24.8835 27.7682 23.4654 27.2927C23.2362 27.2158 23.0421 27.1592 23.034 27.1669C23.026 27.1746 22.9916 27.343 22.9576 27.5412L22.8958 27.9015L22.9744 27.9309C23.5059 28.13 24.8322 28.5203 25.6943 28.7312C27.2531 29.1126 28.3297 29.2638 29.4997 29.2658C30.342 29.2673 30.6461 29.2362 31.2094 29.0913C32.6746 28.7146 33.3698 27.7021 33.1225 26.3052C32.9321 25.2296 32.2463 24.0203 30.9662 22.5029C30.3937 21.8243 28.0519 19.5482 27.8535 19.4774C27.8378 19.4718 27.7016 19.5682 27.5509 19.6916Z"
            stroke="url(#paint1_linear_80_3415)"
            stroke-width="0.993453"
            mask="url(#path-1-outside-1_80_3415)"
          />
          <defs>
            <linearGradient
              id="paint0_linear_80_3415"
              x1="26.8545"
              y1="-7.82444"
              x2="-0.5953"
              y2="36.7729"
              gradientUnits="userSpaceOnUse"
            >
              <stop stop-color="#8364E8" />
              <stop offset="1" stop-color="#D397FA" />
            </linearGradient>
            <linearGradient
              id="paint1_linear_80_3415"
              x1="26.8545"
              y1="-7.82444"
              x2="-0.5953"
              y2="36.7729"
              gradientUnits="userSpaceOnUse"
            >
              <stop stop-color="#8364E8" />
              <stop offset="1" stop-color="#D397FA" />
            </linearGradient>
          </defs>
        </svg>