<svg width="39" height="39" viewBox="0 0 39 39" fill="none" xmlns="http://www.w3.org/2000/svg">
<path d="M20.6242 5C20.6237 5 20.6236 5.00061 20.624 5.00081C22.0852 5.7323 23.5463 6.46559 25.0075 7.19527C27.9725 8.67326 30.9376 10.1494 33.9008 11.6274C33.979 11.6666 33.9511 11.7832 33.8636 11.7832H6.90658C6.829 11.7832 6.80036 11.6773 6.86939 11.6419C11.2925 9.44124 15.7156 7.24054 20.1388 5.03985C20.1698 5.02432 20.1945 5 20.2292 5C20.3615 5 20.4935 5 20.6242 5Z" fill="#6950BA"/>
<path d="M6.00116 32.727C6.00065 32.727 6.00034 32.7264 6.0006 32.726C6.38076 32.0978 6.75551 31.466 7.14653 30.8451C7.34759 30.5245 7.65912 30.4176 8.03768 30.4176C16.2735 30.423 24.5094 30.423 32.7452 30.4176C33.1347 30.4176 33.4516 30.5281 33.6599 30.8559C34.0113 31.4066 34.3881 31.9463 34.6742 32.5296C35.0111 33.2142 34.6 33.7956 33.8374 33.7956C29.3871 33.7956 24.9368 33.7956 20.4865 33.7956C16.0272 33.7956 11.566 33.7902 7.10669 33.8029C6.61764 33.8029 6.25865 33.6663 6.0374 33.2484C6.01261 33.2016 6.00181 33.1487 6.00181 33.0957C6.00181 32.9725 6.00181 32.8494 6.00181 32.7276C6.00181 32.7273 6.00152 32.727 6.00116 32.727Z" fill="#6950BA"/>
<path d="M6 13.5771C6 13.5306 6.03771 13.493 6.08422 13.493H33.5785C34.1782 13.493 34.6728 14.1398 34.3554 14.6486C33.9533 15.2971 33.4951 15.9147 33.0441 16.5324C32.863 16.7805 32.5877 16.8692 32.2761 16.8692C24.359 16.8674 16.442 16.8674 8.52491 16.8692C8.20251 16.8692 7.94531 16.7606 7.73158 16.5215C6.9799 15.6829 6.35682 14.77 6.04709 13.6705C6.04228 13.6549 6.0303 13.6409 6.01801 13.6269C6.006 13.6132 6 13.5953 6 13.5771Z" fill="#6950BA"/>
<path d="M9.39436 19.5664C9.39436 19.0141 9.84208 18.5664 10.3944 18.5664H13.4768C14.0291 18.5664 14.4768 19.0141 14.4768 19.5664V27.7095C14.4768 28.2618 14.0291 28.7095 13.4768 28.7095H10.3944C9.84208 28.7095 9.39436 28.2618 9.39436 27.7095V19.5664Z" fill="#F670C7"/>
<path d="M27.3134 28.7114C26.7611 28.7114 26.3134 28.2637 26.3134 27.7114V19.5701C26.3134 19.0178 26.7611 18.5701 27.3134 18.5701H30.4067C30.959 18.5701 31.4067 19.0178 31.4067 19.5701V27.7114C31.4067 28.2637 30.959 28.7114 30.4067 28.7114H27.3134Z" fill="#F670C7"/>
<path d="M22.9082 27.7204C22.9082 28.2727 22.4605 28.7204 21.9082 28.7204H18.882C18.3297 28.7204 17.882 28.2727 17.882 27.7204V19.5773C17.882 19.025 18.3297 18.5773 18.882 18.5773H21.9082C22.4605 18.5773 22.9082 19.025 22.9082 19.5773V27.7204Z" fill="#F670C7"/>
</svg>
