<svg width="391" height="137" viewBox="0 0 391 137" fill="none" xmlns="http://www.w3.org/2000/svg">
<g clip-path="url(#clip0_1031_16458)">
<path d="M4.28975 135.534C1.67491 134.56 0.563604 132.697 0.831626 129.913C0.955831 128.585 0.896997 127.232 0.877385 125.892C0.857774 124.415 1.8841 122.565 3.19806 122.094C4.04788 121.787 4.93693 121.525 5.88481 121.538C8.78074 121.571 11.6767 121.538 14.5726 121.558C15.2655 121.558 15.5401 121.414 15.7428 120.61C17.5208 113.563 19.3905 106.542 21.2339 99.515C22.914 93.1152 24.5613 86.7088 26.261 80.3155C27.4899 75.6938 28.6535 71.0524 29.8825 66.4242C31.7979 59.1811 33.5498 51.8922 35.4129 44.636C36.315 41.1256 37.3348 37.6544 38.25 34.1505C39.577 29.0385 40.8452 23.9134 42.1592 18.8014C43.1855 14.8072 44.2772 10.8261 45.2512 6.81887C45.833 4.43283 47.853 2.71357 50.3567 2.70703C55.0242 2.70703 59.6917 2.70703 64.3592 2.70703C67.5951 2.70703 69.4385 4.32823 70.1641 7.48565C71.1251 11.6563 72.2233 15.8008 73.2889 19.9454C74.6551 25.2666 76.0475 30.5812 77.4269 35.8959C78.2897 39.2037 79.1461 42.5049 80.009 45.8127C81.3949 51.1273 82.7807 56.4355 84.1731 61.7501C84.8465 64.3258 85.5525 66.8948 86.2193 69.477C87.2717 73.5431 88.285 77.6222 89.3375 81.6883C90.6187 86.6434 91.9327 91.592 93.227 96.5471C94.4429 101.215 95.6523 105.882 96.8617 110.556C97.7246 113.897 98.6528 117.224 99.3981 120.591C99.6007 121.506 99.9995 121.565 100.699 121.558C103.418 121.545 106.144 121.525 108.864 121.571C109.701 121.584 110.563 121.689 111.361 121.931C113.446 122.565 114.361 124.101 114.545 126.291C114.682 127.984 114.309 129.703 114.741 131.39V131.651C114.603 131.743 114.368 131.821 114.348 131.932C113.969 133.907 112.518 134.828 110.851 135.541H4.28975V135.534ZM67.2486 38.21C67.6473 36.53 68.1769 36.1247 69.8242 36.1705C70.6021 36.1966 71.38 36.1705 72.158 36.1705C72.7398 36.1705 72.9947 36.0332 72.8051 35.3402C71.72 31.3069 70.6871 27.2669 69.6346 23.227C68.3403 18.2523 67.0459 13.2775 65.7451 8.30933C65.5751 7.66869 65.4966 7.08035 64.4899 7.09996C59.8747 7.17187 55.253 7.13919 50.6313 7.13265C50.0887 7.13265 49.8011 7.16534 49.618 7.89749C48.4936 12.5127 47.2516 17.1017 46.0488 21.6973C44.9309 25.966 43.8131 30.2413 42.6952 34.5166C42.4425 35.4797 42.8107 35.9613 43.8 35.9613C49.0689 35.9613 54.3313 35.9678 59.6002 35.9613C61.3652 35.9613 61.947 36.4581 62.1627 38.2035C62.0254 39.7593 61.2018 40.4392 59.3648 40.4457C53.7102 40.4653 48.0557 40.498 42.4011 40.4523C41.5186 40.4457 41.1067 40.7007 40.9106 41.5113C40.3092 43.9758 39.7666 46.4599 39.041 48.8917C38.7011 50.0357 38.9429 50.2056 40.0608 50.2056C51.8014 50.1729 63.5486 50.1991 75.2892 50.2056C75.7011 50.2056 76.1129 50.2056 76.5574 50.2056C75.7926 47.1724 75.0343 44.2569 74.3217 41.3348C74.1648 40.6811 73.8772 40.413 73.1908 40.4326C71.9815 40.4719 70.7721 40.4849 69.5693 40.4C68.0788 40.2954 67.5231 39.7201 67.2551 38.197L67.2486 38.21ZM67.0852 85.7282C66.5426 87.6305 65.2352 88.0685 63.3656 88.0554C53.7364 87.9835 44.1072 88.0358 34.4781 88.0424C32.883 88.0424 31.2814 88.0554 29.6864 88.0358C29.085 88.0293 28.8039 88.062 28.6339 88.8595C28.124 91.2978 27.3788 93.6839 26.7447 96.0961C26.3132 97.7304 26.3263 97.7434 27.9737 97.7434C45.8069 97.7565 63.6401 97.7696 81.4733 97.7827C83.6763 97.7827 85.8793 97.75 88.0823 97.7957C88.8341 97.8088 88.9583 97.5212 88.7883 96.9001C88.0758 94.233 87.3502 91.5724 86.6507 88.9053C86.4807 88.2712 86.2323 87.977 85.461 87.9901C82.0094 88.0554 78.5512 88.0228 75.0996 88.0162C72.9293 88.0162 72.694 87.8332 71.9161 85.7217C72.4652 83.9698 73.6876 83.4664 75.4592 83.5318C78.3943 83.6494 81.336 83.5579 84.2712 83.5645C84.9184 83.5645 85.3302 83.5645 85.0883 82.6427C82.7546 73.7392 80.4601 64.8291 78.1852 55.9125C77.9368 54.9385 77.5184 54.6116 76.4528 54.6182C68.6737 54.677 60.8945 54.6508 53.1219 54.6508C48.2845 54.6508 43.4405 54.6574 38.603 54.6508C38.0212 54.6508 37.4459 54.6247 37.2629 55.3372C36.3869 58.7235 35.511 62.1097 34.6415 65.4894C33.223 70.9936 31.824 76.5044 30.3924 82.0021C30.0002 83.5056 29.9936 83.5383 31.4645 83.5448C42.1788 83.5448 52.8996 83.5775 63.614 83.5252C65.3528 83.5187 66.6014 83.9174 67.0982 85.7152L67.0852 85.7282ZM57.7567 131.089V131.102C68.0853 131.102 78.4074 131.102 88.736 131.102C95.4758 131.102 102.216 131.089 108.955 131.122C109.838 131.122 110.21 130.932 110.125 129.991C110.047 129.089 110.04 128.174 110.125 127.272C110.223 126.245 109.87 125.958 108.838 125.971C102.444 126.016 96.0511 125.997 89.6578 125.99C89.1413 125.99 88.6184 125.99 88.1085 125.925C86.9449 125.768 86.3958 124.82 86.3173 123.892C86.2454 123.022 86.6246 122.061 87.7685 121.774C88.3177 121.637 88.8537 121.552 89.4159 121.558C91.0567 121.565 92.6975 121.545 94.3383 121.565C94.9986 121.571 95.1882 121.375 94.9201 120.721C94.0049 118.518 93.5212 116.145 92.9655 113.877C92.1223 110.452 91.1482 107.046 90.4357 103.588C90.2069 102.483 89.7885 102.247 88.7687 102.247C67.9873 102.274 47.2058 102.28 26.4244 102.247C25.3719 102.247 25.0124 102.587 24.764 103.607C23.3781 109.183 21.9269 114.74 20.4168 120.277C20.1226 121.355 20.2664 121.571 21.4039 121.571C35.4456 121.532 49.4873 121.552 63.529 121.538C64.2219 121.538 64.8887 121.63 65.5489 121.807C66.5883 122.088 66.974 122.957 66.961 123.84C66.961 124.604 66.5883 125.35 65.6928 125.716C65.0129 125.99 64.3526 125.971 63.6728 125.971C45.3951 125.977 27.1239 125.977 8.84611 125.997C7.73481 125.997 6.29664 125.526 5.5841 126.186C4.79965 126.919 5.45989 128.396 5.29647 129.533C5.11996 130.762 5.53834 131.115 6.81961 131.109C23.7965 131.063 40.7799 131.076 57.7567 131.076V131.089Z" fill="black"/>
<path d="M57.7567 131.095C40.7799 131.095 23.7965 131.082 6.81961 131.128C5.53834 131.128 5.1265 130.781 5.29647 129.552C5.45336 128.415 4.79965 126.938 5.5841 126.205C6.29665 125.545 7.72827 126.016 8.84612 126.016C27.1239 126.003 45.3951 126.003 63.6728 125.99C64.3527 125.99 65.0129 126.009 65.6928 125.735C66.5883 125.369 66.9544 124.623 66.961 123.859C66.9675 122.976 66.5883 122.107 65.5489 121.826C64.8887 121.649 64.2219 121.558 63.529 121.558C49.4873 121.571 35.4456 121.551 21.4039 121.59C20.2664 121.59 20.1292 121.375 20.4168 120.296C21.9269 114.752 23.3781 109.196 24.764 103.626C25.0189 102.613 25.3719 102.267 26.4244 102.267C47.2058 102.293 67.9873 102.293 88.7687 102.267C89.7951 102.267 90.2134 102.502 90.4357 103.607C91.1482 107.065 92.1288 110.471 92.9655 113.896C93.5212 116.164 94.0049 118.537 94.9201 120.74C95.1947 121.394 94.9986 121.59 94.3383 121.584C92.6975 121.564 91.0567 121.584 89.4159 121.577C88.8537 121.577 88.3177 121.656 87.7686 121.793C86.618 122.081 86.2454 123.042 86.3173 123.911C86.3958 124.839 86.9449 125.781 88.1085 125.944C88.6184 126.016 89.1413 126.009 89.6578 126.009C96.0511 126.009 102.444 126.036 108.838 125.99C109.87 125.983 110.217 126.271 110.125 127.291C110.04 128.193 110.047 129.108 110.125 130.01C110.21 130.951 109.838 131.148 108.955 131.141C102.216 131.108 95.4758 131.121 88.736 131.121C78.4074 131.121 68.0853 131.121 57.7567 131.121V131.108V131.095ZM76.6424 125.964C77.5053 125.964 78.3682 125.996 79.2311 125.957C80.4666 125.905 81.1007 125.022 81.1922 123.983C81.2772 123.009 80.8588 122.054 79.6822 121.806C77.7276 121.394 75.7599 121.492 73.7988 121.708C72.5371 121.852 72.0926 122.813 72.0207 123.859C71.9488 124.898 73.0928 125.905 74.1845 125.957C75.0016 125.996 75.8253 125.964 76.6424 125.964Z" fill="#F670C7"/>
<path d="M67.0852 85.7338C66.5949 83.9361 65.3463 83.5373 63.6009 83.5439C52.8866 83.6027 42.1657 83.57 31.4514 83.5635C29.9806 83.5635 29.9871 83.5243 30.3793 82.0207C31.811 76.5165 33.2164 71.0123 34.6285 65.508C35.4979 62.1218 36.3673 58.7356 37.2498 55.3559C37.4329 54.6434 38.0081 54.6695 38.5899 54.6695C43.4274 54.6695 48.2714 54.6695 53.1088 54.6695C60.888 54.6695 68.6671 54.6957 76.4398 54.6368C77.4988 54.6303 77.9237 54.9506 78.1721 55.9312C80.447 64.8478 82.7415 73.7578 85.0753 82.6614C85.3171 83.5766 84.9053 83.5831 84.2581 83.5831C81.323 83.5766 78.3813 83.6615 75.4461 83.5504C73.6746 83.4785 72.4587 83.9884 71.903 85.7404C70.2949 85.7404 68.6868 85.7404 67.0786 85.7404L67.0852 85.7338Z" fill="#F670C7"/>
<path d="M62.1562 38.2092C61.9405 36.4703 61.3521 35.967 59.5936 35.967C54.3247 35.967 49.0624 35.967 43.7935 35.967C42.8085 35.967 42.4403 35.4854 42.6887 34.5223C43.8065 30.247 44.9244 25.9783 46.0422 21.703C47.2451 17.1074 48.4871 12.5184 49.6115 7.90321C49.788 7.17105 50.0756 7.13837 50.6247 7.13837C55.2465 7.13837 59.8617 7.17759 64.4834 7.10568C65.4901 7.09261 65.5686 7.68095 65.7385 8.31505C67.0394 13.2832 68.3337 18.258 69.6281 23.2327C70.6806 27.2726 71.7134 31.3191 72.7986 35.346C72.9882 36.0454 72.7332 36.1827 72.1514 36.1762C71.3735 36.1762 70.5956 36.1958 69.8177 36.1762C68.1703 36.1239 67.6474 36.5292 67.2421 38.2158C65.5424 38.2158 63.8493 38.2158 62.1497 38.2158L62.1562 38.2092Z" fill="#F670C7"/>
<path d="M67.0852 85.7344C68.6933 85.7344 70.3014 85.7344 71.9095 85.7344C72.6809 87.8459 72.9228 88.0224 75.0931 88.0289C78.5447 88.0289 82.0028 88.0681 85.4544 88.0028C86.2258 87.9897 86.4742 88.2773 86.6442 88.918C87.3436 91.5851 88.0693 94.2457 88.7818 96.9128C88.9452 97.5338 88.8276 97.8215 88.0758 97.8084C85.8728 97.7626 83.6698 97.7953 81.4668 97.7953C63.6336 97.7823 45.8004 97.7692 27.9671 97.7561C26.3198 97.7561 26.3067 97.743 26.7382 96.1088C27.3723 93.6966 28.1175 91.3105 28.6274 88.8722C28.7908 88.0747 29.0719 88.042 29.6799 88.0485C31.2749 88.0681 32.8765 88.055 34.4716 88.055C44.1007 88.0485 53.7299 87.9962 63.359 88.0681C65.2286 88.0812 66.536 87.6432 67.0786 85.7409L67.0852 85.7344Z" fill="#6950BA"/>
<path d="M62.1562 38.21C63.8558 38.21 65.5489 38.21 67.2486 38.21C67.5231 39.7331 68.0723 40.3084 69.5627 40.413C70.7655 40.4979 71.9814 40.4783 73.1843 40.4456C73.8707 40.426 74.1583 40.6941 74.3152 41.3478C75.0277 44.2764 75.7795 47.1919 76.5509 50.2186C76.1064 50.2186 75.6945 50.2186 75.2827 50.2186C63.542 50.2121 51.7949 50.1859 40.0542 50.2186C38.9364 50.2186 38.6945 50.0552 39.0345 48.9047C39.7535 46.4729 40.3027 43.9888 40.9041 41.5243C41.1002 40.7137 41.512 40.4587 42.3945 40.4653C48.0491 40.511 53.7037 40.4783 59.3583 40.4587C61.1952 40.4522 62.0254 39.7723 62.1562 38.2165V38.21Z" fill="#6950BA"/>
<path d="M76.6359 125.957C75.8187 125.957 74.9951 125.99 74.1779 125.951C73.0862 125.898 71.9422 124.885 72.0141 123.852C72.086 122.806 72.5306 121.845 73.7922 121.701C75.7534 121.479 77.721 121.388 79.6756 121.8C80.8588 122.048 81.2707 123.002 81.1857 123.976C81.0942 125.022 80.4601 125.898 79.2246 125.951C78.3617 125.99 77.4988 125.957 76.6359 125.951V125.957Z" fill="black"/>
<path d="M280.012 135.534C277.397 134.56 276.286 132.697 276.554 129.913C276.678 128.585 276.619 127.232 276.599 125.892C276.58 124.415 277.606 122.565 278.92 122.094C279.77 121.787 280.659 121.525 281.607 121.538C284.503 121.571 287.399 121.538 290.295 121.558C290.987 121.558 291.262 121.414 291.465 120.61C293.243 113.563 295.112 106.542 296.956 99.515C298.636 93.1152 300.283 86.7088 301.983 80.3155C303.212 75.6938 304.375 71.0524 305.604 66.4242C307.52 59.1811 309.272 51.8922 311.135 44.636C312.037 41.1256 313.057 37.6544 313.972 34.1505C315.299 29.0385 316.567 23.9134 317.881 18.8014C318.907 14.8072 319.999 10.8261 320.973 6.81887C321.555 4.43283 323.575 2.71357 326.079 2.70703C330.746 2.70703 335.414 2.70703 340.081 2.70703C343.317 2.70703 345.16 4.32823 345.886 7.48565C346.847 11.6563 347.945 15.8008 349.011 19.9454C350.377 25.2666 351.769 30.5812 353.149 35.8959C354.012 39.2037 354.868 42.5049 355.731 45.8127C357.117 51.1273 358.503 56.4355 359.895 61.7501C360.568 64.3258 361.274 66.8948 361.941 69.477C362.994 73.5431 364.007 77.6222 365.059 81.6883C366.341 86.6434 367.655 91.592 368.949 96.5471C370.165 101.215 371.374 105.882 372.584 110.556C373.446 113.897 374.375 117.224 375.12 120.591C375.323 121.506 375.721 121.565 376.421 121.558C379.14 121.545 381.866 121.525 384.586 121.571C385.422 121.584 386.285 121.689 387.083 121.931C389.168 122.565 390.083 124.101 390.266 126.291C390.404 127.984 390.031 129.703 390.463 131.39V131.651C390.325 131.743 390.09 131.821 390.07 131.932C389.691 133.907 388.24 134.828 386.573 135.541H280.005L280.012 135.534ZM342.971 38.2166C343.369 36.5365 343.899 36.1312 345.546 36.177C346.324 36.2031 347.102 36.177 347.88 36.177C348.462 36.177 348.717 36.0397 348.527 35.3468C347.442 31.3134 346.409 27.2735 345.357 23.2335C344.062 18.2588 342.768 13.2841 341.467 8.31587C341.297 7.67523 341.219 7.08689 340.212 7.1065C335.597 7.17841 330.975 7.14572 326.353 7.13919C325.811 7.13919 325.523 7.17187 325.34 7.90403C324.216 12.5192 322.974 17.1083 321.771 21.7039C320.653 25.9726 319.535 30.2478 318.417 34.5231C318.164 35.4862 318.533 35.9678 319.522 35.9678C324.791 35.9678 330.053 35.9743 335.322 35.9678C337.087 35.9678 337.669 36.4646 337.885 38.21C337.747 39.7659 336.924 40.4457 335.087 40.4523C329.432 40.4719 323.778 40.5046 318.123 40.4588C317.24 40.4523 316.829 40.7072 316.633 41.5178C316.031 43.9823 315.489 46.4664 314.763 48.8982C314.423 50.0422 314.665 50.2122 315.783 50.2122C327.523 50.1795 339.271 50.2056 351.011 50.2122C351.423 50.2122 351.835 50.2122 352.279 50.2122C351.515 47.1789 350.756 44.2634 350.044 41.3413C349.887 40.6876 349.599 40.4196 348.913 40.4392C347.703 40.4784 346.494 40.4915 345.291 40.4065C343.801 40.3019 343.245 39.7266 342.977 38.2035L342.971 38.2166ZM342.807 85.7348C342.265 87.6371 340.957 88.0751 339.087 88.062C329.458 87.9901 319.829 88.0424 310.2 88.0489C308.605 88.0489 307.003 88.062 305.408 88.0424C304.807 88.0358 304.526 88.0685 304.356 88.866C303.846 91.3044 303.101 93.6904 302.467 96.1026C302.035 97.7369 302.048 97.75 303.696 97.75C321.529 97.763 339.362 97.7761 357.195 97.7892C359.398 97.7892 361.601 97.7565 363.804 97.8023C364.556 97.8153 364.68 97.5277 364.51 96.9067C363.798 94.2395 363.072 91.5789 362.373 88.9118C362.203 88.2777 361.954 87.9835 361.183 87.9966C357.731 88.062 354.273 88.0293 350.822 88.0228C348.651 88.0228 348.416 87.8397 347.638 85.7282C348.187 83.9763 349.41 83.4729 351.181 83.5383C354.116 83.656 357.058 83.5645 359.993 83.571C360.64 83.571 361.052 83.571 360.81 82.6493C358.477 73.7457 356.182 64.8357 353.907 55.919C353.659 54.945 353.24 54.6182 352.175 54.6247C344.396 54.6835 336.616 54.6574 328.844 54.6574C324.006 54.6574 319.162 54.6639 314.325 54.6574C313.743 54.6574 313.168 54.6312 312.985 55.3438C312.109 58.73 311.233 62.1162 310.363 65.4959C308.945 71.0001 307.546 76.5109 306.114 82.0086C305.722 83.5122 305.716 83.5448 307.186 83.5514C317.901 83.5514 328.622 83.5841 339.336 83.5318C341.075 83.5252 342.323 83.924 342.82 85.7217L342.807 85.7348ZM333.479 131.096V131.109C343.807 131.109 354.129 131.109 364.458 131.109C371.198 131.109 377.937 131.096 384.677 131.128C385.56 131.128 385.932 130.939 385.847 129.997C385.769 129.095 385.762 128.18 385.847 127.278C385.945 126.252 385.592 125.964 384.56 125.977C378.166 126.023 371.773 126.003 365.38 125.997C364.863 125.997 364.34 125.997 363.83 125.931C362.667 125.775 362.118 124.827 362.039 123.898C361.967 123.029 362.346 122.068 363.49 121.78C364.04 121.643 364.576 121.558 365.138 121.565C366.779 121.571 368.419 121.552 370.06 121.571C370.721 121.578 370.91 121.382 370.642 120.728C369.727 118.525 369.243 116.152 368.687 113.884C367.844 110.458 366.87 107.052 366.158 103.594C365.929 102.489 365.51 102.254 364.491 102.254C343.709 102.28 322.928 102.287 302.146 102.254C301.094 102.254 300.734 102.594 300.486 103.614C299.1 109.19 297.649 114.746 296.139 120.283C295.845 121.362 295.988 121.578 297.126 121.578C311.167 121.538 325.209 121.558 339.251 121.545C339.944 121.545 340.611 121.637 341.271 121.813C342.31 122.094 342.696 122.964 342.683 123.846C342.683 124.611 342.31 125.356 341.415 125.722C340.735 125.997 340.075 125.977 339.395 125.977C321.117 125.984 302.846 125.984 284.568 126.003C283.457 126.003 282.019 125.533 281.306 126.193C280.522 126.925 281.182 128.402 281.018 129.54C280.842 130.769 281.26 131.122 282.542 131.115C299.518 131.07 316.502 131.083 333.479 131.083V131.096Z" fill="black"/>
<path d="M333.479 131.095C316.502 131.095 299.518 131.082 282.542 131.128C281.26 131.128 280.848 130.781 281.018 129.552C281.175 128.415 280.522 126.938 281.306 126.205C282.019 125.545 283.45 126.016 284.568 126.016C302.846 126.003 321.117 126.003 339.395 125.99C340.075 125.99 340.735 126.009 341.415 125.735C342.31 125.369 342.676 124.623 342.683 123.859C342.689 122.976 342.31 122.107 341.271 121.826C340.611 121.649 339.944 121.558 339.251 121.558C325.209 121.571 311.167 121.551 297.126 121.59C295.988 121.59 295.851 121.375 296.139 120.296C297.649 114.752 299.1 109.196 300.486 103.626C300.741 102.613 301.094 102.267 302.146 102.267C322.928 102.293 343.709 102.293 364.491 102.267C365.517 102.267 365.935 102.502 366.158 103.607C366.87 107.065 367.851 110.471 368.687 113.896C369.243 116.164 369.727 118.537 370.642 120.74C370.917 121.394 370.721 121.59 370.06 121.584C368.419 121.564 366.779 121.584 365.138 121.577C364.576 121.577 364.04 121.656 363.49 121.793C362.34 122.081 361.967 123.042 362.039 123.911C362.118 124.839 362.667 125.781 363.83 125.944C364.34 126.016 364.863 126.009 365.38 126.009C371.773 126.009 378.166 126.036 384.56 125.99C385.592 125.983 385.939 126.271 385.847 127.291C385.762 128.193 385.769 129.108 385.847 130.01C385.932 130.951 385.56 131.148 384.677 131.141C377.937 131.108 371.198 131.121 364.458 131.121C354.129 131.121 343.807 131.121 333.479 131.121V131.108V131.095ZM352.364 125.964C353.227 125.964 354.09 125.996 354.953 125.957C356.188 125.905 356.823 125.022 356.914 123.983C356.999 123.009 356.581 122.054 355.404 121.806C353.449 121.394 351.482 121.492 349.521 121.708C348.259 121.852 347.814 122.813 347.743 123.859C347.671 124.898 348.815 125.905 349.906 125.957C350.724 125.996 351.547 125.964 352.364 125.964Z" fill="#F670C7"/>
<path d="M342.807 85.7338C342.317 83.9361 341.068 83.5373 339.323 83.5439C328.608 83.6027 317.888 83.57 307.173 83.5635C305.702 83.5635 305.709 83.5243 306.101 82.0207C307.533 76.5165 308.938 71.0123 310.35 65.508C311.22 62.1218 312.089 58.7356 312.972 55.3559C313.155 54.6434 313.73 54.6695 314.312 54.6695C319.149 54.6695 323.993 54.6695 328.831 54.6695C336.61 54.6695 344.389 54.6957 352.162 54.6368C353.221 54.6303 353.646 54.9506 353.894 55.9312C356.169 64.8478 358.463 73.7578 360.797 82.6614C361.039 83.5766 360.627 83.5831 359.98 83.5831C357.045 83.5766 354.103 83.6615 351.168 83.5504C349.396 83.4785 348.181 83.9884 347.625 85.7404C346.017 85.7404 344.409 85.7404 342.801 85.7404L342.807 85.7338Z" fill="#F670C7"/>
<path d="M337.885 38.2092C337.669 36.4703 337.081 35.967 335.322 35.967C330.053 35.967 324.791 35.967 319.522 35.967C318.537 35.967 318.169 35.4854 318.417 34.5223C319.535 30.247 320.653 25.9783 321.771 21.703C322.974 17.1074 324.216 12.5184 325.34 7.90321C325.516 7.17105 325.804 7.13837 326.353 7.13837C330.975 7.13837 335.59 7.17759 340.212 7.10568C341.219 7.09261 341.297 7.68095 341.467 8.31505C342.768 13.2832 344.062 18.258 345.357 23.2327C346.409 27.2726 347.442 31.3191 348.527 35.346C348.717 36.0454 348.462 36.1827 347.88 36.1762C347.102 36.1762 346.324 36.1958 345.546 36.1762C343.899 36.1239 343.376 36.5292 342.971 38.2158C341.271 38.2158 339.578 38.2158 337.878 38.2158L337.885 38.2092Z" fill="#F670C7"/>
<path d="M342.807 85.7344C344.415 85.7344 346.023 85.7344 347.631 85.7344C348.403 87.8459 348.645 88.0224 350.815 88.0289C354.267 88.0289 357.725 88.0681 361.176 88.0028C361.948 87.9897 362.196 88.2773 362.366 88.918C363.066 91.5851 363.791 94.2457 364.504 96.9128C364.667 97.5338 364.549 97.8215 363.798 97.8084C361.595 97.7626 359.392 97.7953 357.189 97.7953C339.355 97.7823 321.522 97.7692 303.689 97.7561C302.042 97.7561 302.029 97.743 302.46 96.1088C303.094 93.6966 303.839 91.3105 304.349 88.8722C304.513 88.0747 304.794 88.042 305.402 88.0485C306.997 88.0681 308.598 88.055 310.193 88.055C319.823 88.0485 329.452 87.9962 339.081 88.0681C340.951 88.0812 342.258 87.6432 342.801 85.7409L342.807 85.7344Z" fill="#6950BA"/>
<path d="M337.885 38.21C339.584 38.21 341.277 38.21 342.977 38.21C343.252 39.7331 343.801 40.3084 345.291 40.413C346.494 40.4979 347.71 40.4783 348.913 40.4456C349.599 40.426 349.887 40.6941 350.044 41.3478C350.756 44.2764 351.508 47.1919 352.279 50.2186C351.835 50.2186 351.423 50.2186 351.011 50.2186C339.27 50.2121 327.523 50.1859 315.783 50.2186C314.665 50.2186 314.423 50.0552 314.763 48.9047C315.482 46.4729 316.031 43.9888 316.632 41.5243C316.829 40.7137 317.24 40.4587 318.123 40.4653C323.778 40.511 329.432 40.4783 335.087 40.4587C336.924 40.4522 337.754 39.7723 337.885 38.2165V38.21Z" fill="#6950BA"/>
<path d="M352.364 125.957C351.547 125.957 350.723 125.99 349.906 125.951C348.815 125.898 347.671 124.885 347.743 123.852C347.814 122.806 348.259 121.845 349.521 121.701C351.482 121.479 353.449 121.388 355.404 121.8C356.587 122.048 356.999 123.002 356.914 123.976C356.823 125.022 356.188 125.898 354.953 125.951C354.09 125.99 353.227 125.957 352.364 125.951V125.957Z" fill="black"/>
<path d="M246.025 73.0658C245.659 73.0462 245.287 73.0201 244.921 73.0201C211.699 73.0201 178.477 73.0201 145.256 73.0201C144.89 73.0201 144.517 73.0527 144.151 73.0658C143.922 73.0266 143.818 73.0985 143.896 73.3404C143.883 84.0155 143.863 94.6971 143.857 105.372C143.857 113.472 143.863 121.571 143.85 129.677C143.85 132.488 142.589 134.593 140.111 135.946C139.601 136.227 139.052 136.312 138.477 136.319C134.77 136.299 131.057 136.28 127.351 136.267C127.089 136.267 126.821 136.253 126.743 136.587H126.429C126.383 136.332 126.187 136.325 125.978 136.267C122.794 135.404 121.408 132.815 121.408 130.769C121.402 111.857 121.402 92.9452 121.435 74.0333C121.435 73.0331 121.108 72.6867 120.166 72.3402C116.761 71.0916 114.087 67.5943 114.093 63.7243C114.12 50.4997 114.133 37.2817 114.067 24.0572C114.048 20.9128 114.12 17.8665 116.009 15.1732C116.421 14.9379 116.748 14.6176 116.976 14.1992C117.846 13.4932 118.715 12.8591 119.853 12.5584C120.951 12.2773 121.657 11.604 121.454 10.2181C121.284 9.09374 121.376 7.91052 121.454 6.76653C121.578 4.95575 121.997 3.24957 123.598 2.09904C123.814 2.15787 123.893 2.07289 123.847 1.85717C125.18 0.432077 126.939 0.183668 128.743 0.170593C131.665 0.144445 134.587 0.170593 137.516 0.183668C137.941 0.301335 138.359 0.419003 138.784 0.536671C141.281 1.28844 142.961 2.82466 143.53 5.44604C143.824 6.82536 143.981 8.2243 143.831 9.62324C143.661 11.1333 144.046 11.6563 145.733 11.6301C153.375 11.519 161.017 11.5778 168.659 11.5778C193.957 11.5778 219.249 11.5648 244.548 11.6105C245.796 11.6105 246.319 11.2771 246.058 10.0547C245.698 8.36812 246.424 6.77307 246.581 5.15187C246.816 2.79197 248.614 1.11194 250.987 0.615116C255.014 -0.22817 259.126 -0.117039 263.159 0.490911C266.401 0.981194 268.101 3.19073 268.585 6.4789C268.801 7.94975 268.774 9.39444 268.781 10.8522C268.781 11.7086 269.042 12.2838 269.879 12.4734C271.239 12.7807 272.246 13.637 273.246 14.5195C273.481 14.9314 273.782 15.2713 274.22 15.474C275.096 16.7291 275.2 18.3372 276.122 19.5727V65.7508C275.88 65.777 275.606 65.6724 275.495 66.0384C274.553 69.1893 272.618 71.3989 269.422 72.4186C268.787 72.6213 268.787 73.1443 268.794 73.6803C268.807 75.3146 268.794 76.9423 268.794 78.5766C268.794 95.4227 268.846 112.275 268.755 129.121C268.735 133.41 267.219 135.397 263.479 136.319C259.825 136.306 256.177 136.286 252.523 136.28C252.236 136.28 251.876 136.175 251.745 136.593H251.431C249.183 135.835 247.333 134.658 246.555 132.227C246.241 131.246 246.352 130.265 246.352 129.285C246.339 111.216 246.339 93.1543 246.339 75.0858C246.339 74.504 246.313 73.9287 246.3 73.3469C246.378 73.105 246.274 73.0331 246.045 73.0724L246.025 73.0658ZM139.052 80.2959C139.072 78.1974 139.065 76.0925 139.124 73.9941C139.144 73.2554 138.928 72.9939 138.157 73.0005C134.476 73.0397 130.796 73.0331 127.109 73.0005C126.337 72.9939 126.115 73.2619 126.135 74.0006C126.194 76.099 126.187 78.204 126.213 80.3024C126.194 96.887 126.174 113.472 126.148 130.056C126.148 131.168 126.638 131.645 127.743 131.632C130.743 131.612 133.751 131.632 136.751 131.632C138.869 131.632 139.111 131.383 139.111 129.259C139.111 115.197 139.111 101.143 139.111 87.0814C139.111 84.8195 139.072 82.5577 139.059 80.2959H139.052ZM263.963 80.3089C263.983 78.2105 263.983 76.1056 264.042 74.0072C264.061 73.2685 263.839 73.0005 263.067 73.007C259.387 73.0397 255.707 73.0397 252.02 73.007C251.248 73.0005 251.033 73.2554 251.052 74.0006C251.111 76.099 251.105 78.204 251.124 80.3024C251.105 96.9393 251.098 113.576 251.059 130.213C251.059 131.383 251.673 131.638 252.641 131.638C255.537 131.638 258.433 131.638 261.335 131.638C263.813 131.638 264.028 131.429 264.028 128.958C264.028 117.061 264.028 105.156 264.028 93.2589C264.028 88.9445 263.989 84.63 263.97 80.3089H263.963ZM161.867 68.2218C166.181 68.2414 170.502 68.2218 174.817 68.2937C175.836 68.3068 176.549 68.0192 177.281 67.287C192.042 52.487 206.822 37.7066 221.629 22.9524C223.557 21.0305 225.322 18.9386 227.519 17.2847C227.728 17.1278 227.989 16.7618 227.793 16.3042C222.596 16.4284 217.386 16.1473 212.183 16.448C211.764 16.4807 211.588 16.8467 211.339 17.0952C194.565 33.8497 177.798 50.6109 161.036 67.3785C160.801 67.6139 160.402 67.7773 160.448 68.2153C160.925 68.2153 161.402 68.2153 161.873 68.2153L161.867 68.2218ZM119.14 62.0181C118.931 61.9724 118.852 62.0508 118.905 62.2535C118.611 66.4503 120.264 68.2676 124.383 68.2676C125.435 68.2676 126.494 68.2022 127.54 68.2872C128.462 68.3591 129.077 68.0126 129.717 67.372C141.164 55.8929 152.63 44.4399 164.096 32.9868C165.769 31.3134 166.345 31.2088 168.489 32.1828C168.94 32.9149 168.914 33.6667 168.574 34.4315C168.443 34.7323 168.201 35.0068 168.293 35.3794C168.234 35.4709 168.201 35.5625 168.181 35.6671C167.979 35.8305 167.757 35.9808 167.574 36.1639C157.193 46.5383 146.812 56.9126 136.431 67.287C136.182 67.5354 135.829 67.7316 135.784 68.2218H136.862C141.451 68.2349 146.047 68.0976 150.623 68.333C152.943 68.4572 154.473 67.5354 155.977 66.0319C171.685 50.284 187.486 34.6277 203.044 18.7294C203.73 18.0234 204.475 17.3697 205.195 16.6964C205.436 16.631 205.482 16.533 205.253 16.3826C199.442 16.3826 193.624 16.3957 187.812 16.3957C187.178 16.3303 186.897 16.8467 186.544 17.1997C183.093 20.6383 179.641 24.0768 176.216 27.5349C175.784 27.9729 175.464 28.5285 175.098 29.0254C173.96 29.581 172.823 29.9929 171.685 29.0123C170.633 27.9467 170.764 26.3844 171.96 25.1685C174.771 22.3052 177.66 19.5204 180.523 16.6964C180.811 16.6833 180.942 16.5983 180.667 16.3499C175.666 16.3368 170.666 16.3499 165.665 16.2911C164.821 16.2846 164.305 16.6506 163.775 17.1867C159.834 21.1874 155.898 25.1881 151.989 29.2215C145.289 36.1312 138.398 42.8709 131.58 49.6761C127.449 53.801 123.298 57.8997 119.153 62.0116L119.14 62.0181ZM222.622 49.9441C223.603 51.3823 223.394 52.5982 222.106 53.7879C220.518 55.2522 219.04 56.8342 217.504 58.3573C214.268 61.5736 211.019 64.7833 207.502 68.2676C213.052 68.2676 218.197 68.2676 223.335 68.2741C223.838 68.2741 224.067 67.9146 224.348 67.627C239.75 52.2386 255.145 36.8437 270.566 21.4815C271.154 20.8997 271.272 20.2983 271.023 19.71C270.435 18.3045 269.585 17.1605 267.957 16.6833C265.676 16.0165 263.368 16.5133 261.087 16.3042C259.995 16.2061 259.243 16.6049 258.472 17.3762C248.882 27.0185 239.253 36.6215 229.63 46.2376C228.179 47.6888 227.506 47.7607 225.845 46.6952C224.799 45.1393 225.316 43.8907 226.525 42.6814C234.958 34.2747 243.378 25.8549 251.798 17.4351C252.072 17.1605 252.549 17.0036 252.432 16.3565C247.071 16.3565 241.711 16.3826 236.344 16.3303C235.246 16.3172 234.487 16.6702 233.729 17.4351C217.242 33.9543 200.73 50.4474 184.23 66.9536C183.877 67.3066 183.406 67.5812 183.236 68.2611C188.747 68.2611 194.16 68.2349 199.573 68.2807C200.547 68.2872 201.233 68.0061 201.919 67.3132C207.293 61.8874 212.712 56.5008 218.112 51.1012C219.387 49.8264 220.818 49.1596 222.622 49.9376V49.9441ZM271.343 27.6787C257.779 41.302 244.352 54.7881 230.925 68.2676C236.455 68.2676 242.136 68.2676 247.81 68.2741C248.418 68.2741 248.771 67.9211 249.143 67.5485C256.295 60.3904 263.447 53.2257 270.611 46.0741C271.082 45.6035 271.363 45.1393 271.357 44.4268C271.33 38.8964 271.343 33.3595 271.343 27.6722V27.6787ZM157.984 16.3695C152.009 16.3695 146.282 16.3761 140.556 16.363C139.81 16.363 139.431 16.8664 138.993 17.3043C132.58 23.7107 126.187 30.1301 119.748 36.5038C119.042 37.2033 118.8 37.9093 118.813 38.8702C118.852 43.139 118.833 47.4012 118.833 51.6699C118.833 52.8989 118.833 54.1344 118.833 55.7687C131.979 42.4722 145.079 29.751 157.99 16.3695H157.984ZM255.033 68.2741C259.08 68.2741 262.754 68.2741 266.421 68.2741C268.611 68.2741 270.592 66.7641 271.004 64.6199C271.736 60.7826 271.187 56.8865 271.337 53.0231C271.343 52.827 271.383 52.5785 271.108 52.5132C270.722 52.4217 270.566 52.7681 270.356 52.9708C265.329 57.9782 260.315 62.9921 255.033 68.2676V68.2741ZM133.247 16.3695C129.835 16.3695 126.52 16.2715 123.219 16.4022C120.611 16.5068 118.866 18.5072 118.839 21.1024C118.82 23.5734 118.833 26.051 118.826 28.522C118.826 29.2672 118.826 30.0125 118.826 30.7838C123.696 25.9137 128.41 21.2005 133.241 16.3695H133.247ZM132.6 11.5778H135.13C137.889 11.5778 139.216 10.2029 139.111 7.45293C139.046 5.73367 138.333 4.96229 136.614 4.9296C133.927 4.88384 131.247 4.88384 128.56 4.9296C126.73 4.96229 126.122 5.67483 126.109 7.56406C126.109 8.45964 126.174 9.36176 126.089 10.2443C125.991 11.2641 126.318 11.6497 127.383 11.5974C129.116 11.519 130.855 11.5778 132.593 11.5778H132.6ZM257.518 4.91653C257.518 4.91653 257.518 4.92307 257.518 4.9296C256.099 4.9296 254.674 4.90999 253.255 4.9296C251.791 4.95575 251.085 5.76635 251.078 7.20452C251.078 8.25699 251.137 9.316 251.059 10.3619C250.98 11.349 251.333 11.6105 252.301 11.5909C255.726 11.5321 259.145 11.5255 262.571 11.5909C263.682 11.6171 264.081 11.4406 263.806 10.2181C263.604 9.316 263.721 8.3289 263.78 7.38756C263.872 5.8448 263.192 4.9819 261.636 4.92307C260.27 4.87077 258.897 4.90999 257.531 4.90999L257.518 4.91653Z" fill="black"/>
<path d="M126.743 136.587C126.828 136.247 127.096 136.267 127.351 136.267C131.057 136.286 134.77 136.306 138.477 136.319C138.464 136.411 138.457 136.496 138.451 136.587H126.743Z" fill="#999999"/>
<path d="M263.46 136.313C263.434 136.404 263.421 136.496 263.434 136.587H251.726C251.856 136.169 252.209 136.273 252.504 136.273C256.158 136.28 259.805 136.299 263.46 136.313Z" fill="#999999"/>
<path d="M222.622 49.9435C220.818 49.1656 219.387 49.8324 218.112 51.1071C212.706 56.5068 207.293 61.8934 201.919 67.3192C201.233 68.0121 200.547 68.2932 199.573 68.2866C194.16 68.2409 188.747 68.267 183.236 68.267C183.406 67.5872 183.877 67.3061 184.23 66.9596C200.73 50.4534 217.242 33.9603 233.729 17.4411C234.494 16.6762 235.252 16.3232 236.344 16.3363C241.704 16.3886 247.071 16.3624 252.432 16.3624C252.549 17.0096 252.072 17.1665 251.798 17.4411C243.378 25.8608 234.964 34.2806 226.525 42.6873C225.316 43.8902 224.799 45.1453 225.845 46.7011C224.512 47.5248 223.793 48.9564 222.622 49.9501V49.9435Z" fill="#F670C7"/>
<path d="M168.181 35.6672C168.201 35.5626 168.234 35.4645 168.293 35.3796C168.619 35.3469 168.92 35.2292 169.012 34.9023C169.11 34.5624 168.842 34.4774 168.574 34.4382C168.914 33.6734 168.94 32.9216 168.489 32.1894C169.554 31.137 170.62 30.078 171.685 29.0255C172.816 30.0061 173.96 29.5942 175.098 29.0386C175.745 29.1562 176.183 28.8359 176.621 28.4045C180.112 24.9006 183.609 21.4032 187.113 17.9124C187.538 17.4875 187.904 17.0626 187.812 16.4154C193.624 16.4154 199.442 16.4023 205.253 16.4023C205.234 16.5069 205.214 16.6115 205.195 16.7161C204.475 17.3894 203.737 18.0432 203.044 18.7492C187.486 34.6474 171.685 50.3038 155.977 66.0516C154.473 67.5552 152.95 68.4769 150.623 68.3527C146.047 68.1174 141.451 68.2546 136.862 68.2416C136.921 67.4637 137.581 67.1107 138.052 66.64C147.714 56.9651 157.389 47.3032 167.051 37.6283C167.593 37.0857 168.338 36.6412 168.175 35.6803L168.181 35.6672Z" fill="#F670C7"/>
<path d="M222.622 49.9446C223.786 48.951 224.505 47.5193 225.845 46.6957C227.506 47.7612 228.172 47.6893 229.63 46.2381C239.253 36.6285 248.875 27.019 258.472 17.3768C259.243 16.6054 259.995 16.2066 261.087 16.3047C263.368 16.5073 265.676 16.0105 267.957 16.6838C269.585 17.161 270.435 18.305 271.023 19.7105C271.272 20.2988 271.154 20.9003 270.566 21.4821C255.145 36.8443 239.75 52.2391 224.348 67.6275C224.061 67.9151 223.838 68.2746 223.335 68.2746C218.197 68.2616 213.052 68.2681 207.502 68.2681C211.026 64.7773 214.268 61.5676 217.504 58.3579C219.04 56.8347 220.518 55.2527 222.106 53.7884C223.394 52.5987 223.603 51.3828 222.622 49.9446Z" fill="#6950BA"/>
<path d="M171.679 29.0184C170.613 30.0709 169.548 31.1299 168.482 32.1824C166.345 31.2083 165.763 31.3129 164.089 32.9864C152.623 44.446 141.157 55.8924 129.711 67.3716C129.07 68.0188 128.455 68.3587 127.534 68.2868C126.488 68.2083 125.429 68.2672 124.376 68.2672C120.258 68.2672 118.604 66.4499 118.898 62.253C118.977 62.1746 119.055 62.0961 119.134 62.0177C123.278 57.9059 127.429 53.8071 131.561 49.6822C138.379 42.8836 145.262 36.1439 151.969 29.2276C155.879 25.1942 159.814 21.1935 163.756 17.1928C164.285 16.6567 164.802 16.2841 165.645 16.2972C170.646 16.356 175.647 16.343 180.648 16.356C180.602 16.4737 180.556 16.5848 180.504 16.7025C177.647 19.52 174.758 22.3113 171.94 25.1746C170.744 26.3905 170.613 27.9529 171.666 29.0184H171.679Z" fill="#6950BA"/>
<path d="M212.176 16.4418C217.38 16.1411 222.59 16.4222 227.787 16.298C227.983 16.7556 227.721 17.1217 227.512 17.2786C225.322 18.9324 223.551 21.0243 221.622 22.9462C206.822 37.707 192.035 52.4874 177.275 67.2809C176.549 68.013 175.83 68.3006 174.81 68.2876C170.496 68.2222 166.175 68.2287 161.86 68.2157C161.886 67.5489 162.429 67.2351 162.828 66.8363C178.915 50.6439 195.01 34.4515 211.104 18.2591C211.326 18.0369 211.542 17.8015 211.771 17.5858C212.111 17.272 212.196 16.8733 212.17 16.4418H212.176Z" fill="#6950BA"/>
<path d="M263.963 80.3024C263.983 84.6169 264.022 88.9314 264.022 93.2524C264.028 105.15 264.022 117.054 264.022 128.952C264.022 131.423 263.813 131.632 261.329 131.632C258.433 131.632 255.537 131.632 252.634 131.632C251.667 131.632 251.052 131.377 251.052 130.207C251.092 113.57 251.098 96.9328 251.118 80.2959C255.399 80.2959 259.675 80.3024 263.957 80.309L263.963 80.3024Z" fill="#F670C7"/>
<path d="M139.052 80.2956C139.072 82.5574 139.104 84.8193 139.104 87.0811C139.104 101.142 139.104 115.197 139.104 129.258C139.104 131.383 138.863 131.625 136.745 131.631C133.744 131.631 130.737 131.618 127.736 131.631C126.632 131.638 126.141 131.161 126.141 130.056C126.168 113.471 126.187 96.8868 126.207 80.3021C130.489 80.3021 134.764 80.2956 139.046 80.2891L139.052 80.2956Z" fill="#F670C7"/>
<path d="M271.35 27.6787C271.35 33.3725 271.337 38.9029 271.363 44.4333C271.363 45.1393 271.089 45.61 270.618 46.0807C263.453 53.2322 256.302 60.3969 249.15 67.555C248.777 67.9276 248.424 68.2807 247.816 68.2807C242.142 68.2676 236.468 68.2741 230.931 68.2741C244.352 54.7946 257.779 41.3086 271.35 27.6852V27.6787Z" fill="#F670C7"/>
<path d="M157.99 16.3698C145.079 29.7513 131.979 42.4725 118.833 55.7689C118.833 54.1281 118.833 52.8991 118.833 51.6702C118.833 47.4014 118.852 43.1393 118.813 38.8705C118.807 37.9161 119.042 37.2036 119.748 36.5041C126.187 30.1239 132.58 23.7044 138.993 17.3046C139.431 16.8666 139.81 16.3633 140.556 16.3633C146.282 16.3764 152.009 16.3698 157.984 16.3698H157.99Z" fill="#F670C7"/>
<path d="M255.04 68.2736C260.322 62.9982 265.336 57.9842 270.363 52.9768C270.572 52.7676 270.729 52.4277 271.115 52.5192C271.389 52.5846 271.35 52.833 271.343 53.0291C271.193 56.8925 271.742 60.7821 271.01 64.6259C270.605 66.7701 268.624 68.2736 266.428 68.2802C262.754 68.2802 259.08 68.2802 255.04 68.2802V68.2736Z" fill="#6950BA"/>
<path d="M133.247 16.3693C128.416 21.2002 123.703 25.9135 118.833 30.7836C118.833 30.0122 118.833 29.267 118.833 28.5218C118.833 26.0507 118.82 23.5732 118.846 21.1021C118.866 18.5069 120.611 16.5 123.226 16.402C126.527 16.2712 129.841 16.3693 133.254 16.3693H133.247Z" fill="#6950BA"/>
<path d="M263.963 80.3027C259.681 80.3027 255.406 80.2962 251.124 80.2897C251.105 78.1913 251.111 76.0863 251.052 73.9879C251.033 73.2492 251.242 72.9877 252.02 72.9943C255.7 73.0335 259.381 73.0269 263.067 72.9943C263.839 72.9877 264.061 73.2557 264.042 73.9944C263.983 76.0928 263.989 78.1978 263.963 80.2962V80.3027Z" fill="#C4499E"/>
<path d="M139.052 80.2958C134.77 80.2958 130.495 80.3024 126.213 80.3089C126.194 78.2105 126.194 76.1055 126.135 74.0071C126.115 73.2684 126.337 73.0004 127.109 73.007C130.789 73.0396 134.47 73.0396 138.157 73.007C138.928 73.0004 139.144 73.2554 139.124 74.0006C139.065 76.099 139.072 78.204 139.052 80.3024V80.2958Z" fill="#C4499E"/>
<path d="M132.6 11.5712C130.861 11.5712 129.122 11.5124 127.39 11.5909C126.324 11.6432 125.998 11.2575 126.096 10.2377C126.181 9.34863 126.109 8.45305 126.115 7.55746C126.128 5.67478 126.736 4.96223 128.567 4.92301C131.253 4.87071 133.934 4.87071 136.62 4.92301C138.34 4.9557 139.052 5.72708 139.117 7.44633C139.222 10.1963 137.895 11.5712 135.136 11.5712C134.293 11.5712 133.45 11.5712 132.607 11.5712H132.6Z" fill="#F670C7"/>
<path d="M257.511 4.91646C258.877 4.91646 260.25 4.87724 261.616 4.92954C263.172 4.98837 263.852 5.85127 263.76 7.39403C263.702 8.33537 263.584 9.32247 263.787 10.2246C264.061 11.4536 263.669 11.6235 262.551 11.5974C259.132 11.5255 255.707 11.5385 252.281 11.5974C251.314 11.6105 250.961 11.3555 251.039 10.3684C251.124 9.32247 251.052 8.26346 251.059 7.21099C251.065 5.77282 251.771 4.96222 253.236 4.93608C254.654 4.90993 256.079 4.93608 257.498 4.93608C257.498 4.93608 257.498 4.92954 257.498 4.923L257.511 4.91646Z" fill="#F670C7"/>
<path d="M212.176 16.4414C212.202 16.8794 212.117 17.2716 211.777 17.5854C211.542 17.8011 211.333 18.0299 211.111 18.2587C195.016 34.4511 178.922 50.637 162.834 66.8359C162.435 67.2347 161.893 67.5485 161.867 68.2153H160.442C160.396 67.7773 160.795 67.6138 161.03 67.3785C177.791 50.6108 194.559 33.8497 211.333 17.0951C211.581 16.8467 211.758 16.4806 212.176 16.4479V16.4414Z" fill="#6950BA"/>
<path d="M168.181 35.667C168.345 36.6214 167.6 37.0725 167.057 37.615C157.389 47.2834 147.714 56.9518 138.059 66.6267C137.588 67.0974 136.934 67.4504 136.869 68.2283C136.516 68.2283 136.156 68.2283 135.79 68.2283C135.836 67.738 136.182 67.5419 136.437 67.2935C146.812 56.9126 157.193 46.5382 167.58 36.1703C167.763 35.9873 167.985 35.837 168.188 35.6735L168.181 35.667Z" fill="#434F59"/>
<path d="M187.812 16.4018C187.897 17.0555 187.538 17.4805 187.113 17.8988C183.609 21.3896 180.105 24.887 176.621 28.3909C176.189 28.8223 175.745 29.1492 175.098 29.025C175.47 28.5282 175.784 27.9725 176.216 27.5345C179.648 24.0764 183.093 20.6379 186.544 17.1994C186.904 16.8464 187.178 16.3299 187.812 16.3953V16.4018Z" fill="#444F59"/>
<path d="M168.574 34.4313C168.842 34.4771 169.11 34.5621 169.012 34.8955C168.914 35.2223 168.613 35.34 168.293 35.3727C168.201 35.0001 168.443 34.732 168.574 34.4248V34.4313Z" fill="#434F59"/>
<path d="M119.14 62.0186C119.062 62.0971 118.983 62.1755 118.905 62.254C118.859 62.0448 118.937 61.9663 119.14 62.0186Z" fill="#FCC800"/>
<path d="M205.195 16.7034C205.214 16.5988 205.234 16.4942 205.253 16.3896C205.482 16.54 205.436 16.6446 205.195 16.7034Z" fill="#1F1F1F"/>
<path d="M180.517 16.7029C180.563 16.5852 180.608 16.4741 180.661 16.3564C180.935 16.6049 180.811 16.6833 180.517 16.7029Z" fill="#5A4502"/>
</g>
<defs>
<clipPath id="clip0_1031_16458">
<rect width="390.134" height="136.586" fill="white" transform="translate(0.367493)"/>
</clipPath>
</defs>
</svg>
