<svg width="139" height="139" viewBox="0 0 139 139" fill="none" xmlns="http://www.w3.org/2000/svg">
<g clip-path="url(#clip0_1031_16643)">
<path d="M139 79.5552C138.98 79.894 138.945 80.2298 138.945 80.5686C138.945 99.3206 138.945 118.07 138.945 136.822C138.945 137.064 138.968 137.306 138.98 137.546C138.349 138.711 137.291 138.764 136.123 138.764C92.3989 138.746 48.6751 138.749 4.95427 138.755C4.19185 138.755 3.44111 138.764 2.66408 138.942C1.09251 139.301 -0.353463 137.803 0.0817881 136.261C0.233688 135.724 0.251215 135.227 0.251215 134.716C0.259978 100.696 0.259978 66.6791 0.251215 32.6592C0.251215 32.1511 0.230767 31.6429 0.128526 31.1143C-0.0613483 30.1418 0.487828 29.365 1.48978 29.108C1.99514 28.9766 2.55016 29.0175 3.08181 29.0145C23.2699 29.0116 43.4579 29.0087 63.6431 29.0145C66.8476 29.0145 69.4474 30.1097 70.7853 33.2287C71.2761 34.3735 71.3111 35.6556 71.3286 36.8851C71.39 40.9123 71.3783 44.9396 71.3958 48.9639C71.3841 50.0795 71.3637 51.1951 71.3608 52.3107C71.3549 55.6633 71.3608 55.602 74.6675 55.6779C79.8321 55.7947 85.0172 55.2661 90.319 56.0897C90.319 55.0822 90.4067 54.0162 90.2986 52.9736C90.135 51.3674 88.4349 50.5117 86.5508 51.2769C82.9285 52.7458 79.3881 52.9123 75.7366 51.3791C74.5448 50.8797 73.8233 50.3102 73.9752 48.9639C74.3696 47.8162 75.2547 47.527 76.2303 47.9709C77.3988 48.5025 78.6403 48.739 79.8409 49.1274C81.3394 49.6122 82.7036 48.9318 84.0911 48.4295C86.7786 47.454 90.4184 47.2496 92.3814 49.7378C93.395 51.0199 93.8507 52.4771 93.8565 54.0688C93.8828 60.7945 93.8799 67.5202 93.8887 74.2488C93.8712 76.2376 93.8449 78.2264 93.839 80.2152C93.8303 82.1953 93.839 82.1953 95.7524 82.1953C107.545 82.1953 119.338 82.1953 131.13 82.1894C132.1 82.1894 133.085 82.134 133.996 82.4873C135.308 82.9955 135.611 82.4669 135.468 81.2578C135.401 80.6854 135.486 80.0926 135.465 79.5114C135.413 78.1184 134.364 77.0232 132.994 76.9473C132.173 76.9035 131.379 76.9794 130.575 77.289C127.821 78.3579 125.107 78.3637 122.282 77.2598C118.155 75.6477 113.913 75.4462 109.713 77.1167C107.697 77.9198 105.632 78.3024 103.467 78.0921C102.053 77.9548 100.794 77.251 99.4301 76.994C98.0104 76.7283 97.2918 76.0274 97.2831 74.5905C97.9608 73.6677 98.7407 73.0661 99.9384 73.7232C100.014 73.764 100.146 73.7027 100.225 73.7436C103.616 75.4666 106.897 74.684 110.227 73.4486C114.538 71.8483 118.838 72.4469 123.021 73.9918C125.043 74.7365 127.012 74.903 129.004 74.1933C132.226 73.0456 135.086 73.2267 137.548 75.9281C138.524 76.9969 138.582 78.3199 139.012 79.5465L139 79.5552ZM22.449 55.6283C22.6301 55.6662 22.7032 55.5874 22.6827 55.4092C22.7119 48.0352 22.7295 40.6641 22.785 33.29C22.7908 32.4285 22.3497 32.3876 21.6954 32.3876C16.0196 32.3993 10.3438 32.4081 4.66799 32.3818C3.87928 32.3789 3.54919 32.5658 3.55211 33.4273C3.58133 40.5093 3.5784 47.5942 3.55211 54.6762C3.55211 55.4326 3.77996 55.6838 4.54531 55.6808C10.5132 55.6429 16.4782 55.64 22.4461 55.6254L22.449 55.6283ZM67.8525 55.4122C67.8642 49.0077 67.9021 42.6032 67.8817 36.2017C67.8729 33.5733 66.6519 32.4022 64.0521 32.3993C51.9205 32.3935 39.7919 32.4168 27.6604 32.3643C26.3897 32.3584 26.1677 32.7673 26.1793 33.9238C26.2348 40.2319 26.2056 46.5399 26.2056 52.848C26.2056 53.7066 26.2611 54.5711 25.9836 55.4092C25.9632 55.5874 26.0362 55.6662 26.2173 55.6283C27.1375 55.6429 28.0547 55.6692 28.9749 55.6692C41.8484 55.6575 54.7219 55.6429 67.5954 55.6283C67.7736 55.6662 67.8671 55.602 67.8554 55.4122H67.8525ZM93.8887 112.477C93.8712 119.801 93.8712 127.123 93.8186 134.447C93.8098 135.525 94.4262 135.44 95.1302 135.44C108.226 135.434 121.321 135.426 134.417 135.461C135.48 135.461 135.699 135.093 135.696 134.12C135.661 127.281 135.647 120.441 135.708 113.604C135.72 112.419 135.343 112.173 134.233 112.179C125.358 112.22 116.481 112.197 107.606 112.205C103.096 112.211 98.5888 112.243 94.0786 112.264C93.9179 112.252 93.839 112.314 93.8887 112.483V112.477ZM90.5761 62.17C89.6852 59.0072 88.7591 59.0364 85.5839 59.0072C73.7474 58.8904 61.9079 58.9751 50.0685 58.9371C48.9877 58.9342 48.6664 59.2145 48.6751 60.3155C48.7248 67.1551 48.7335 73.9977 48.6693 80.8402C48.6576 82.0872 49.1308 82.2391 50.1824 82.2303C56.1503 82.1894 62.1183 82.2099 68.0862 82.2099C70.7911 82.2099 71.3403 82.7677 71.3403 85.5333C71.3403 92.7613 71.3637 99.9923 71.317 107.22C71.3082 108.362 71.5127 108.806 72.7951 108.8C85.7504 108.751 98.7027 108.751 111.658 108.8C112.876 108.806 113.075 108.386 113.066 107.305C113.022 100.608 113.011 93.912 113.075 87.2184C113.086 85.9655 112.809 85.5888 111.492 85.5946C100.721 85.653 89.951 85.6297 79.1778 85.6238C78.649 85.6238 78.1145 85.583 77.5916 85.507C76.8934 85.4048 76.54 84.9901 76.4494 84.2629C76.2829 82.9108 76.8847 82.2303 78.4621 82.2186C81.7601 82.1953 85.061 82.2274 88.3589 82.204C90.8974 82.1865 90.5323 82.5545 90.544 80.0926C90.5732 74.1729 90.5732 68.2561 90.5819 62.3365C90.6491 62.3073 90.7163 62.2781 90.7806 62.2459C90.7134 62.2197 90.6433 62.1963 90.5761 62.17ZM22.7119 110.45C22.7295 102.548 22.7265 94.645 22.7879 86.7424C22.7966 85.6238 22.2299 85.6326 21.4354 85.6326C15.9553 85.6472 10.4752 85.6735 4.99808 85.6122C3.8267 85.6005 3.53751 85.9626 3.54627 87.0899C3.59593 93.8302 3.59593 100.571 3.54627 107.311C3.53751 108.453 3.85007 108.803 5.00685 108.78C8.59402 108.707 12.1812 108.756 15.7713 108.754C16.931 108.754 17.7723 109.121 17.8249 110.45C17.7109 111.689 17.0011 112.205 15.7947 112.203C12.2046 112.188 8.61155 112.238 5.02145 112.173C3.92018 112.153 3.52874 112.398 3.54043 113.596C3.60177 120.388 3.60469 127.184 3.54043 133.977C3.52874 135.265 3.99029 135.464 5.12954 135.461C17.9884 135.426 30.8503 135.414 43.7092 135.472C45.1376 135.478 45.4735 135.072 45.4473 133.691C45.3596 128.887 45.4151 124.083 45.4151 119.279C45.4151 118.505 45.5816 117.818 46.4025 117.532C47.1912 117.255 47.828 117.602 48.3217 118.172C48.7569 118.677 48.7102 119.337 48.7102 119.971C48.7043 124.679 48.7423 129.386 48.681 134.094C48.6664 135.212 49.0227 135.464 50.086 135.461C63.091 135.426 76.096 135.426 89.1038 135.461C90.2314 135.464 90.5907 135.192 90.579 134.015C90.5206 127.368 90.5556 120.718 90.5469 114.069C90.5469 111.919 90.7747 112.203 88.7007 112.203C67.5428 112.194 46.3849 112.194 25.227 112.211C23.9155 112.211 22.9281 111.931 22.7178 110.45H22.7119ZM24.3887 82.207C30.9846 82.207 37.5835 82.1894 44.1795 82.2245C45.1026 82.2303 45.4385 82.0142 45.4326 81.0271C45.3917 74.0911 45.3888 67.1551 45.4326 60.2162C45.4385 59.1561 45.0733 58.9342 44.0948 58.9371C31.046 58.9663 17.9972 58.9663 4.95135 58.9342C3.88805 58.9342 3.53459 59.1824 3.54335 60.3009C3.59301 67.1405 3.60177 73.9802 3.53751 80.8198C3.52582 82.0347 3.95231 82.2362 5.03314 82.2303C11.483 82.1865 17.9359 82.2099 24.3858 82.2099L24.3887 82.207ZM47.0422 85.6238C40.5426 85.6238 34.046 85.6501 27.5464 85.5976C26.4393 85.5888 26.1735 85.9159 26.1793 86.9877C26.2261 93.8244 26.2261 100.664 26.1793 107.501C26.1735 108.54 26.5007 108.789 27.4968 108.786C40.5426 108.756 53.5856 108.754 66.6314 108.786C67.6626 108.786 67.9313 108.482 67.9255 107.474C67.8846 100.638 67.8788 93.7981 67.9313 86.9614C67.9401 85.8458 67.5983 85.5917 66.535 85.6005C60.0384 85.6472 53.5388 85.6238 47.0393 85.6238H47.0422ZM116.452 96.8996C116.452 96.8996 116.469 96.8996 116.475 96.8996C116.475 100.439 116.487 103.982 116.466 107.521C116.463 108.275 116.484 108.791 117.509 108.783C123.232 108.742 128.957 108.754 134.68 108.774C135.433 108.774 135.693 108.517 135.69 107.763C135.67 101.747 135.72 95.7343 135.661 89.7183C135.635 87.0811 134.691 85.7348 132.684 85.691C127.45 85.5742 122.209 85.6355 116.972 85.6209C116.487 85.6209 116.414 85.7377 116.422 86.278C116.484 89.8176 116.455 93.36 116.455 96.8996H116.452Z" fill="#333333"/>
<path d="M138.982 5.87005C138.982 11.9007 138.988 17.9284 138.991 23.9591C138.591 25.0601 138.354 26.1844 137.659 27.2124C136.397 29.0786 134.592 29.9255 132.55 29.9401C120.562 30.016 108.573 30.0102 96.5878 29.9401C93.4739 29.9226 90.693 27.4315 90.6199 24.2336C90.4768 17.9284 90.4651 11.6145 90.6608 5.31225C90.7338 2.91167 92.6297 0.499409 96.4067 0.0204614C108.553 0.0146206 120.699 0.00877979 132.848 0.00585938C136.266 0.525693 138.314 2.47945 138.985 5.87589L138.982 5.87005ZM114.524 26.5641C120.15 26.5641 125.779 26.4385 131.399 26.6137C134.385 26.7072 135.769 24.7593 135.711 22.2886C135.6 17.4904 135.679 12.6863 135.679 7.88513C135.679 4.49453 134.528 3.32637 131.183 3.32637C122.455 3.32637 113.723 3.32637 104.995 3.32637C102.474 3.32637 99.9501 3.30009 97.4291 3.33513C95.5158 3.36433 93.8828 4.62887 93.8712 6.20006C93.8244 11.9211 93.8244 17.6452 93.8624 23.3692C93.8741 25.1097 95.3434 26.6488 97.3532 26.605C103.073 26.4852 108.798 26.5641 114.521 26.5641H114.524Z" fill="#333333"/>
<path d="M97.2713 74.6024C97.2801 76.0364 97.9987 76.7373 99.4184 77.0059C100.783 77.2629 102.042 77.9667 103.455 78.104C105.623 78.3143 107.685 77.9317 109.701 77.1286C113.901 75.4552 118.143 75.6596 122.271 77.2717C125.095 78.3756 127.809 78.3698 130.564 77.3009C131.367 76.9884 132.159 76.9125 132.982 76.9592C134.352 77.0351 135.401 78.1303 135.454 79.5233C135.477 80.1045 135.389 80.6944 135.457 81.2697C135.6 82.4788 135.296 83.0074 133.984 82.4992C133.073 82.1459 132.089 82.2013 131.119 82.2013C119.326 82.2072 107.533 82.2072 95.7407 82.2072C93.8244 82.2072 93.8185 82.2072 93.8273 80.2271C93.8361 78.2383 93.8594 76.2495 93.877 74.2607C94.9724 74.693 96.1175 74.6754 97.2655 74.6083L97.2713 74.6024Z" fill="#6950BA"/>
<path d="M73.9693 48.9668C73.8174 50.316 74.5419 50.8826 75.7308 51.382C79.3822 52.9123 82.9226 52.7487 86.5449 51.2798C88.4319 50.5146 90.1291 51.3674 90.2927 52.9765C90.4008 54.022 90.3132 55.0851 90.3132 56.0926C85.0113 55.272 79.8262 55.8006 74.6616 55.6808C71.3549 55.6049 71.352 55.6662 71.3549 52.3136C71.3549 51.198 71.3783 50.0824 71.3899 48.9668C72.2488 48.9668 73.1105 48.9668 73.9693 48.9639V48.9668Z" fill="#6950BA"/>
<path d="M22.7148 110.447C22.9252 111.928 23.9125 112.208 25.2241 112.208C46.382 112.191 67.5399 112.194 88.6978 112.2C90.7747 112.2 90.541 111.916 90.5439 114.066C90.5527 120.715 90.5177 127.362 90.5761 134.012C90.5878 135.189 90.2285 135.461 89.1009 135.458C76.0959 135.42 63.091 135.423 50.0831 135.458C49.0198 135.458 48.6634 135.209 48.678 134.091C48.7394 129.383 48.7014 124.676 48.7072 119.968C48.7072 119.334 48.7569 118.674 48.3187 118.169C47.825 117.599 47.1882 117.252 46.3995 117.529C45.5787 117.815 45.4122 118.502 45.4122 119.276C45.4122 124.08 45.3567 128.887 45.4443 133.688C45.4706 135.069 45.1347 135.475 43.7062 135.469C30.8473 135.411 17.9855 135.423 5.12659 135.458C3.98734 135.461 3.5258 135.262 3.53748 133.974C3.60467 127.181 3.59883 120.385 3.53748 113.593C3.5258 112.395 3.92015 112.153 5.01851 112.17C8.6086 112.235 12.2016 112.185 15.7917 112.2C16.9981 112.205 17.7109 111.688 17.8219 110.447C19.4519 110.447 21.079 110.447 22.709 110.447H22.7148ZM10.5015 123.209C10.6797 121.992 9.90851 121.562 8.89487 121.542C7.97471 121.524 7.40216 122.117 7.31161 123.04C7.20353 124.144 7.95718 124.862 8.84813 124.927C9.75077 124.991 10.6096 124.439 10.5015 123.209ZM10.5015 130.291C10.5599 129.117 10.0458 128.51 8.94745 128.516C8.00392 128.522 7.44306 129.056 7.32914 129.979C7.20937 130.954 8.0974 132.111 8.92993 131.953C9.77998 131.795 10.6125 131.41 10.4986 130.289L10.5015 130.291ZM14.2669 130.178C14.2201 131.252 14.9066 131.915 15.7976 131.901C16.7177 131.886 17.5327 131.249 17.5093 130.137C17.4889 129.106 16.855 128.53 15.8414 128.522C14.7868 128.513 14.2873 129.144 14.2639 130.178H14.2669Z" fill="#F670C7"/>
<path d="M90.5819 62.333C90.5703 68.2527 90.5703 74.1723 90.544 80.0891C90.5323 82.551 90.8974 82.183 88.3589 82.2006C85.061 82.2239 81.7601 82.1889 78.4621 82.2151C76.8847 82.2268 76.2829 82.9044 76.4494 84.2594C76.54 84.9866 76.8934 85.4042 77.5916 85.5035C78.1145 85.5795 78.649 85.6204 79.1778 85.6204C89.948 85.6262 100.721 85.6496 111.492 85.5911C112.809 85.5853 113.086 85.962 113.075 87.2149C113.011 93.9114 113.022 100.605 113.066 107.302C113.072 108.382 112.873 108.8 111.658 108.797C98.7027 108.75 85.7504 108.747 72.7951 108.797C71.5127 108.803 71.3111 108.359 71.317 107.217C71.3666 99.9888 71.3432 92.7578 71.3403 85.5298C71.3403 82.7642 70.7941 82.2064 68.0862 82.2064C62.1183 82.2064 56.1503 82.1859 50.1824 82.2268C49.1308 82.2327 48.6576 82.0808 48.6693 80.8367C48.7365 73.9971 48.7248 67.1546 48.6751 60.3121C48.6664 59.2111 48.9877 58.9307 50.0685 58.9336C61.9079 58.9716 73.7474 58.8869 85.5839 59.0037C88.7591 59.0358 89.6851 59.0037 90.5761 62.1665C90.5732 62.222 90.5732 62.2775 90.579 62.333H90.5819Z" fill="#F670C7"/>
<path d="M94.0786 112.258C98.5888 112.237 103.096 112.205 107.606 112.199C116.481 112.19 125.358 112.214 134.233 112.173C135.34 112.167 135.717 112.412 135.708 113.598C135.649 120.438 135.661 127.277 135.696 134.114C135.702 135.089 135.48 135.457 134.417 135.454C121.321 135.419 108.226 135.431 95.1302 135.434C94.4262 135.434 93.8098 135.519 93.8186 134.441C93.8712 127.12 93.8712 119.795 93.8887 112.471C93.9529 112.398 94.0143 112.325 94.0786 112.252V112.258ZM100.888 128.516C99.7982 128.355 99.3834 129.041 99.3629 129.941C99.3395 130.931 99.9764 131.661 100.932 131.658C101.887 131.655 102.588 131.129 102.559 129.932C102.529 128.743 101.925 128.428 100.885 128.519L100.888 128.516Z" fill="#F670C7"/>
<path d="M24.3886 82.2064C17.9387 82.2064 11.4859 82.183 5.03602 82.2268C3.9552 82.2356 3.52871 82.0312 3.54039 80.8163C3.60174 73.9767 3.5959 67.1371 3.54624 60.2974C3.53747 59.1789 3.89093 58.9278 4.95423 58.9307C18.003 58.9657 31.0518 58.9628 44.0976 58.9336C45.0762 58.9336 45.4443 59.1526 45.4355 60.2128C45.3888 67.1487 45.3946 74.0847 45.4355 81.0236C45.4414 82.0136 45.1054 82.2268 44.1824 82.221C37.5864 82.1859 30.9875 82.2035 24.3916 82.2035L24.3886 82.2064ZM10.3788 77.8374C11.3691 78.0039 11.8657 77.3235 11.9212 76.3597C11.9825 75.3142 11.185 74.771 10.297 74.7214C9.30674 74.6659 8.50927 75.2908 8.50051 76.3276C8.49466 77.3205 9.20743 77.8316 10.3759 77.8345L10.3788 77.8374ZM10.3175 70.8314C11.4538 71.0124 11.8803 70.2677 11.9212 69.3361C11.965 68.2994 11.1588 67.8613 10.2736 67.7211C9.51122 67.6014 8.35445 68.6966 8.48882 69.4208C8.66409 70.3583 9.25124 70.9278 10.3204 70.8343L10.3175 70.8314Z" fill="#F670C7"/>
<path d="M67.5954 55.6283C54.7219 55.6429 41.8484 55.6575 28.9749 55.6692C28.0547 55.6692 27.1375 55.6429 26.2173 55.6283C26.1385 55.5553 26.0625 55.4823 25.9836 55.4093C26.2582 54.5741 26.2057 53.7096 26.2057 52.8481C26.2057 46.54 26.2349 40.2319 26.1794 33.9238C26.1706 32.7644 26.3897 32.3585 27.6604 32.3643C39.7919 32.4169 51.9205 32.3935 64.0521 32.3994C66.6519 32.3994 67.8729 33.5734 67.8817 36.2017C67.9021 42.6062 67.8671 49.0107 67.8525 55.4122C67.7649 55.4852 67.6801 55.5582 67.5925 55.6283H67.5954ZM61.2741 39.972C62.0423 39.7909 62.7171 39.4463 62.6616 38.2869C62.609 37.1596 62.0394 36.707 61.0112 36.7362C59.9917 36.7654 59.2439 37.3991 58.9401 38.2636C58.7034 38.9353 60.1932 40.0129 61.2741 39.9749V39.972ZM62.6762 45.0039C62.5769 44.1628 62.0452 43.7043 61.0433 43.7452C60.0589 43.7861 59.0511 44.3205 59.0774 45.1324C59.1036 45.9705 59.8602 46.9547 61.0112 46.943C62.0978 46.9313 62.6119 46.2246 62.6762 45.0039Z" fill="#F670C7"/>
<path d="M47.0421 85.6231C53.5417 85.6231 60.0383 85.6465 66.5379 85.5998C67.6012 85.591 67.943 85.8451 67.9342 86.9607C67.8816 93.7974 67.8875 100.637 67.9284 107.474C67.9342 108.481 67.6655 108.788 66.6343 108.785C53.5884 108.753 40.5455 108.753 27.4997 108.785C26.5035 108.785 26.1764 108.537 26.1822 107.5C26.226 100.663 26.229 93.8236 26.1822 86.987C26.1734 85.9152 26.4422 85.5881 27.5493 85.5969C34.0459 85.6494 40.5455 85.6231 47.0451 85.6231H47.0421ZM61.5223 92.3781C60.3801 92.2671 60.0705 93.0205 60.0354 93.8937C59.9974 94.913 60.5904 95.5379 61.6041 95.573C62.7404 95.6139 63.2078 94.9071 63.2253 93.8353C63.2458 92.638 62.3899 92.5007 61.5223 92.3781ZM61.5778 99.3724C60.5554 99.2031 60.0822 99.8777 60.0413 100.85C59.9974 101.829 60.5233 102.524 61.5573 102.562C62.5768 102.599 63.126 101.972 63.2107 100.985C63.3013 99.9186 62.7901 99.3637 61.5807 99.3754L61.5778 99.3724ZM56.3256 93.5608C56.3226 92.8599 55.642 92.3751 54.5904 92.3956C53.6352 92.416 53.0013 93.0176 53.0714 93.9259C53.1386 94.7845 53.568 95.6226 54.6839 95.5788C55.6771 95.5409 56.308 95.059 56.3256 93.5608Z" fill="#F670C7"/>
<path d="M22.7148 110.447C21.0848 110.447 19.4577 110.447 17.8277 110.447C17.7751 109.115 16.9339 108.747 15.7742 108.75C12.187 108.753 8.59689 108.706 5.00972 108.776C3.85294 108.8 3.54038 108.449 3.54914 107.307C3.5988 100.567 3.5988 93.8269 3.54914 87.0865C3.54038 85.9563 3.82957 85.5942 5.00095 85.6088C10.4781 85.6701 15.9582 85.6439 21.4383 85.6293C22.2299 85.6293 22.7995 85.6205 22.7908 86.739C22.7294 94.6417 22.7323 102.544 22.7148 110.447Z" fill="#6950BA"/>
<path d="M22.4491 55.6285C16.4812 55.6431 10.5162 55.646 4.54827 55.684C3.78293 55.6898 3.55216 55.4357 3.55508 54.6793C3.57845 47.5973 3.58137 40.5124 3.55508 33.4304C3.55216 32.566 3.88225 32.3791 4.67096 32.3849C10.3468 32.4112 16.0225 32.4053 21.6983 32.3907C22.3527 32.3907 22.7938 32.4316 22.7879 33.2931C22.7354 40.6672 22.7149 48.0383 22.6857 55.4124C22.6068 55.4854 22.528 55.5584 22.452 55.6314L22.4491 55.6285Z" fill="#F670C7"/>
<path d="M116.452 96.899C116.452 93.3595 116.481 89.817 116.419 86.2775C116.411 85.7372 116.484 85.6204 116.969 85.6204C122.206 85.6379 127.447 85.5737 132.682 85.6905C134.691 85.7343 135.635 87.0806 135.658 89.7177C135.717 95.7309 135.667 101.747 135.687 107.763C135.687 108.519 135.43 108.776 134.677 108.773C128.954 108.753 123.229 108.741 117.506 108.782C116.484 108.791 116.46 108.274 116.463 107.521C116.484 103.981 116.472 100.439 116.472 96.899C116.463 96.899 116.455 96.899 116.449 96.899H116.452ZM129.264 91.5079C128.554 91.6832 127.806 92.1242 127.92 93.0733C128.031 93.9961 128.528 94.7817 129.705 94.735C130.8 94.6912 131.326 93.9523 131.3 93.0616C131.271 92.0365 130.479 91.5167 129.267 91.505L129.264 91.5079Z" fill="#F670C7"/>
<path d="M90.5819 62.3335C90.5761 62.278 90.5731 62.2225 90.579 62.167C90.6462 62.1933 90.7163 62.2166 90.7835 62.2429C90.7163 62.2721 90.6491 62.3013 90.5848 62.3335H90.5819Z" fill="#F670C7"/>
<path d="M67.5955 55.6282C67.6831 55.5552 67.7678 55.4822 67.8554 55.4121C67.8671 55.6019 67.7736 55.6662 67.5955 55.6282Z" fill="#F670C7"/>
<path d="M25.9837 55.4092C26.0626 55.4822 26.1385 55.5552 26.2174 55.6282C26.0363 55.6662 25.9632 55.5873 25.9837 55.4092Z" fill="#F670C7"/>
<path d="M22.4491 55.6282C22.528 55.5552 22.6068 55.4822 22.6828 55.4092C22.7003 55.5873 22.6302 55.6662 22.4491 55.6282Z" fill="#F670C7"/>
<path d="M94.0786 112.258C94.0143 112.331 93.953 112.404 93.8887 112.477C93.839 112.308 93.915 112.247 94.0786 112.258Z" fill="#F670C7"/>
<path d="M114.524 26.5639C108.801 26.5639 103.076 26.485 97.3561 26.6048C95.3435 26.6457 93.877 25.1095 93.8653 23.369C93.8245 17.6479 93.8245 11.9239 93.8741 6.19984C93.8858 4.62866 95.5187 3.3612 97.4321 3.33492C99.953 3.29695 102.477 3.32616 104.998 3.32616C113.726 3.32616 122.458 3.32616 131.186 3.32616C134.531 3.32616 135.679 4.49432 135.682 7.88492C135.682 12.6861 135.606 17.4902 135.714 22.2884C135.769 24.7591 134.388 26.707 131.402 26.6135C125.782 26.4383 120.153 26.5639 114.527 26.5639H114.524ZM130.301 17.496C131.192 17.4405 132.016 16.541 131.957 15.6299C131.878 14.4646 131.043 14.0704 130.064 14.085C129.124 14.0996 128.645 14.8559 128.499 15.6824C128.379 16.3658 129.641 17.5369 130.301 17.496ZM131.966 8.55954C131.951 7.62208 131.186 7.16942 130.283 7.10225C129.278 7.02632 128.58 7.84112 128.539 8.66467C128.496 9.49407 129.141 10.3322 130.082 10.5045C130.981 10.671 131.948 9.66637 131.966 8.55954ZM124.964 8.83406C125.054 7.66589 124.263 7.15482 123.389 7.12853C122.583 7.10517 121.815 7.5958 121.768 8.62671C121.727 9.57584 122.577 10.6535 123.378 10.5045C124.245 10.341 125.072 9.96134 124.961 8.83406H124.964Z" fill="#6950BA"/>
<path d="M10.4986 123.212C10.6067 124.441 9.74493 124.993 8.84522 124.929C7.95427 124.865 7.20061 124.146 7.30869 123.042C7.39925 122.12 7.97179 121.53 8.89196 121.544C9.9056 121.562 10.6768 121.991 10.4986 123.212Z" fill="#333333"/>
<path d="M10.5015 130.294C10.6125 131.416 9.77999 131.798 8.93286 131.959C8.10033 132.114 7.20938 130.96 7.33207 129.985C7.44599 129.065 8.00393 128.527 8.95038 128.522C10.0487 128.516 10.5629 129.12 10.5044 130.297L10.5015 130.294Z" fill="#333333"/>
<path d="M14.2639 130.178C14.2873 129.147 14.7868 128.513 15.8414 128.525C16.855 128.533 17.4889 129.109 17.5093 130.14C17.5327 131.249 16.7177 131.889 15.7976 131.903C14.9066 131.918 14.2201 131.255 14.2639 130.18V130.178Z" fill="#333333"/>
<path d="M100.888 128.513C101.925 128.422 102.532 128.738 102.562 129.926C102.591 131.124 101.887 131.649 100.935 131.652C99.9793 131.655 99.3425 130.928 99.3659 129.935C99.3863 129.039 99.8011 128.352 100.891 128.51L100.888 128.513Z" fill="#333333"/>
<path d="M10.3788 77.8376C9.21037 77.8347 8.49761 77.3207 8.50345 76.3307C8.5093 75.2939 9.30969 74.666 10.3 74.7245C11.188 74.7741 11.9855 75.3173 11.9241 76.3628C11.8657 77.3265 11.372 78.007 10.3818 77.8405L10.3788 77.8376Z" fill="#333333"/>
<path d="M10.3175 70.8321C9.24838 70.9256 8.66123 70.3561 8.48596 69.4187C8.35159 68.6973 9.50836 67.5993 10.2708 67.719C11.1588 67.8592 11.965 68.2972 11.9183 69.334C11.8774 70.2656 11.4509 71.0103 10.3146 70.8292L10.3175 70.8321Z" fill="#333333"/>
<path d="M61.2741 39.9715C60.1933 40.0095 58.7035 38.9318 58.9401 38.2601C59.2439 37.3957 59.9917 36.762 61.0112 36.7328C62.0394 36.7036 62.6091 37.1562 62.6616 38.2835C62.7171 39.4458 62.0424 39.7875 61.2741 39.9686V39.9715Z" fill="#333333"/>
<path d="M62.6761 45.0034C62.6148 46.2241 62.1007 46.928 61.0111 46.9426C59.8602 46.9542 59.1036 45.973 59.0773 45.1319C59.051 44.32 60.0588 43.7856 61.0432 43.7447C62.0452 43.7038 62.5768 44.1623 62.6761 45.0034Z" fill="#333333"/>
<path d="M61.5223 92.3781C62.3928 92.5007 63.2487 92.638 63.2253 93.8354C63.2078 94.9101 62.7404 95.6139 61.6041 95.573C60.5904 95.538 59.9945 94.913 60.0354 93.8938C60.0676 93.0206 60.3801 92.2671 61.5223 92.3781Z" fill="#333333"/>
<path d="M61.5778 99.3727C62.7872 99.3611 63.2984 99.9159 63.2078 100.982C63.1231 101.972 62.5739 102.597 61.5544 102.559C60.5204 102.521 59.9975 101.826 60.0384 100.848C60.0822 99.8751 60.5525 99.2004 61.5749 99.3698L61.5778 99.3727Z" fill="#333333"/>
<path d="M56.3256 93.5645C56.3081 95.0627 55.68 95.5475 54.6839 95.5825C53.568 95.6234 53.1357 94.7852 53.0714 93.9295C53.0013 93.0213 53.6352 92.4197 54.5904 92.3992C55.6421 92.3759 56.3227 92.8607 56.3256 93.5645Z" fill="#333333"/>
<path d="M129.264 91.5107C130.476 91.5224 131.268 92.0423 131.297 93.0673C131.323 93.958 130.797 94.6969 129.702 94.7407C128.528 94.7874 128.028 94.0019 127.917 93.079C127.803 92.1299 128.551 91.6889 129.261 91.5137L129.264 91.5107Z" fill="#333333"/>
<path d="M130.301 17.4964C129.641 17.5373 128.379 16.3662 128.498 15.6828C128.644 14.8563 129.124 14.1 130.064 14.0854C131.043 14.0707 131.878 14.465 131.957 15.6302C132.018 16.5414 131.195 17.4409 130.301 17.4964Z" fill="#333333"/>
<path d="M131.966 8.55987C131.948 9.6667 130.981 10.6713 130.082 10.5049C129.141 10.3326 128.498 9.4944 128.539 8.665C128.583 7.84145 129.278 7.02665 130.283 7.10258C131.183 7.16975 131.951 7.62241 131.966 8.55987Z" fill="#333333"/>
<path d="M124.964 8.83425C125.072 9.95861 124.248 10.3412 123.381 10.5047C122.583 10.6537 121.73 9.57603 121.771 8.6269C121.815 7.59599 122.583 7.10536 123.392 7.12873C124.266 7.15501 125.057 7.66608 124.967 8.83425H124.964Z" fill="#333333"/>
</g>
<defs>
<clipPath id="clip0_1031_16643">
<rect width="139" height="139" fill="white"/>
</clipPath>
</defs>
</svg>
