<svg width="40" height="40" viewBox="0 0 40 40" fill="none" xmlns="http://www.w3.org/2000/svg">
<circle cx="20" cy="20" r="20" fill="url(#paint0_linear_1826_606)"/>
<path d="M12.6703 10.1134L32.3364 19.4546C32.9177 19.7307 33.1635 20.4225 32.8856 20.9998C32.7706 21.2386 32.5768 21.431 32.3364 21.5452L12.6703 30.8863C12.089 31.1624 11.3925 30.9183 11.1145 30.341C10.9937 30.0901 10.9677 29.8045 11.0414 29.5362L13.0084 22.3729C13.0577 22.1935 13.2102 22.0607 13.3958 22.0356L22.9255 20.7501C23.0077 20.7384 23.0757 20.6848 23.1072 20.6116L23.1235 20.5535C23.1392 20.4448 23.0763 20.343 22.9776 20.3049L22.9255 20.2912L13.407 19.0057C13.2214 18.9806 13.0689 18.8478 13.0196 18.6684L11.0414 11.4635C10.8719 10.8462 11.2384 10.2092 11.86 10.0408C12.1301 9.96766 12.4177 9.99341 12.6703 10.1134Z" fill="white"/>
<defs>
<linearGradient id="paint0_linear_1826_606" x1="32.1429" y1="-9.82143" x2="3.21429" y2="42.6786" gradientUnits="userSpaceOnUse">
<stop stop-color="#8364E8"/>
<stop offset="1" stop-color="#D397FA"/>
</linearGradient>
</defs>
</svg>
